<svg width="229" height="180" viewBox="0 0 229 180" fill="none" xmlns="http://www.w3.org/2000/svg">
<g clip-path="url(#clip0_1286_1298)">
<path d="M320 0H0V180H320V0Z" fill="white"/>
<path d="M102.045 89.2378C102.045 101.772 112.288 111.465 124.298 111.465C136.307 111.465 146.551 101.772 146.551 89.2378C146.551 77.7425 138.55 69.3628 129.69 69.3628C127.675 69.3628 125.693 69.7978 124.298 70.3715C122.902 69.7978 120.918 69.3628 118.907 69.3628C110.044 69.3628 102.045 77.7425 102.045 89.2378ZM128.263 83.4673C128.263 85.9018 126.655 87.8203 124.299 87.8203C121.944 87.8203 120.335 85.9018 120.335 83.4673C120.335 80.1478 122.591 77.2018 124.299 76.1885C126.007 77.2025 128.263 80.1478 128.263 83.4673ZM107.516 89.1313C107.516 80.4808 113.758 74.57 118.664 74.7898C116.339 77.1058 114.931 80.48 114.931 83.7425C114.931 89.3593 119.387 93.2975 124.298 93.2975C129.207 93.2975 133.666 89.3593 133.666 83.7425C133.666 80.48 132.258 77.1058 129.933 74.7898C134.839 74.57 141.082 80.4808 141.082 89.1313C141.082 98.6015 133.483 105.991 124.299 105.991C115.114 105.99 107.516 98.6015 107.516 89.1313Z" fill="#032E59" fill-opacity="0.35"/>
<path d="M167.22 78.4917V82.8919H169.678V90.9837L163.076 78.4917H155.457V82.8919H157.914V96.3552H155.457V100.753H165.534V96.3552H163.076V88.2627L169.678 100.753H174.84V82.8919H177.296V78.4917H167.22Z" fill="#032E59" fill-opacity="0.35"/>
<path d="M198.232 87.0424V78.4917H178.854V87.0424H183.253V82.892H185.621V96.3552H182.407V100.751H194.679V96.3552H191.465V82.892H193.834V87.0424H198.232Z" fill="#032E59" fill-opacity="0.35"/>
<path d="M219.111 87.0424V78.4917H199.734V87.0424H204.131V82.892H206.499V96.3552H203.286V100.751H215.556V96.3552H212.344V82.892H214.711V87.0424H219.111Z" fill="#032E59" fill-opacity="0.35"/>
</g>
<defs>
<clipPath id="clip0_1286_1298">
<rect width="320" height="180" fill="white"/>
</clipPath>
</defs>
</svg>
