<svg width="320" height="180" viewBox="0 0 320 180" fill="none" xmlns="http://www.w3.org/2000/svg">
<g clip-path="url(#clip0_1286_1285)">
<path d="M320 0H0V180H320V0Z" fill="white"/>
<path d="M237.329 82.4536L233.981 91.2787C229.98 100.568 223.097 107.443 193.887 107.443L202.259 98.9891C212.678 88.4919 227.562 82.7323 237.329 82.4536Z" fill="#032E59" fill-opacity="0.3"/>
<path d="M221.887 79.1094L212.398 88.6777C221.422 82.2679 230.352 78.3663 239.283 77.3444L241.422 71.6777C228.306 71.6777 226.445 74.5575 221.887 79.1094Z" fill="#032E59" fill-opacity="0.3"/>
<path d="M79.4651 75.2075C79.1861 77.8086 79 81.1529 79 84.3113C79 87.3769 79.093 90.2567 79.4651 93.1365H84.2094C84.4885 90.2567 84.6745 87.3769 84.6745 84.3113C84.6745 81.1529 84.4885 77.7157 84.2094 75.2075H79.4651ZM95.8375 85.7048H102.535C103.466 85.7048 104.024 85.7977 104.489 86.1693C104.861 86.5408 105.047 86.9124 105.047 87.5627C105.047 88.213 104.861 88.6775 104.489 89.049C103.931 89.5135 103.187 89.7922 101.977 89.7922H96.0236C95.9306 88.3059 95.8375 86.9124 95.8375 85.7048ZM96.0236 78.6447H100.675C102.535 78.6447 103.187 78.8305 103.745 79.2949C104.024 79.5736 104.21 80.0381 104.21 80.5955C104.21 81.3387 103.931 81.9889 103.373 82.4534H95.8375C95.8375 81.1529 95.9306 79.8523 96.0236 78.6447ZM90.7212 75.2075C90.4421 77.9015 90.256 81.2458 90.256 84.1255C90.256 87.0053 90.3491 89.8851 90.7212 93.0436H101.326C105.047 93.0436 107.373 92.5791 108.768 91.6501C109.884 90.907 110.536 89.4206 110.536 87.7485C110.536 85.7977 109.419 84.2184 107.466 83.4753C108.768 82.7321 109.605 81.3387 109.605 79.8523C109.605 78.4589 109.233 77.437 108.303 76.6939C106.721 75.3933 103.931 75.3004 100.954 75.3004H90.7212V75.2075ZM115.094 75.2075C114.815 77.9944 114.629 81.2458 114.629 84.1255C114.629 87.0053 114.815 90.1638 115.094 93.0436H132.21C132.117 91.8359 132.024 90.7212 132.024 89.5135H120.396C120.303 88.213 120.303 86.9124 120.303 85.7048H131.001V82.3605H120.21C120.21 81.3387 120.21 79.9452 120.303 78.7376H132.024C132.117 77.5299 132.117 76.4152 132.303 75.2075H115.094ZM142.536 78.5518H147.373C149.141 78.5518 150.071 78.7376 150.629 79.3878C151.001 79.7594 151.188 80.2239 151.188 80.7813C151.188 81.7102 150.722 82.6392 149.792 83.1037H142.35C142.35 81.896 142.443 80.3168 142.536 78.5518ZM137.234 75.2075C136.955 77.9944 136.769 81.2458 136.769 84.1255C136.769 87.0053 136.955 89.978 137.234 93.0436H142.815C142.536 90.7212 142.443 88.7704 142.35 86.4479H147.932C148.304 86.9124 149.048 87.7485 149.699 88.8632C150.536 90.1638 151.094 91.3714 151.839 93.1365H158.071C157.234 91.5572 156.397 90.1638 155.095 88.3059C154.35 87.284 153.606 86.3551 152.955 85.7048C155.281 84.8687 156.676 82.9179 156.676 80.5955C156.676 79.2021 156.211 77.9015 155.374 77.0654C154.164 75.8578 152.304 75.3004 149.327 75.3004H137.234V75.2075ZM162.071 75.2075C161.792 77.8086 161.606 81.1529 161.606 84.3113C161.606 87.3769 161.699 90.2567 162.071 93.1365H166.816C167.095 90.2567 167.281 87.3769 167.281 84.3113C167.281 81.1529 167.095 77.7157 166.816 75.2075H162.071ZM181.979 79.4807C183.188 81.6174 184.304 83.8469 185.514 86.5408H178.537C179.653 83.8469 180.769 81.7102 181.979 79.4807ZM179.188 75.2075C177.793 77.3441 176.211 80.0381 174.444 83.4753C172.676 86.9124 171.095 90.4425 170.165 93.1365H176.025C176.397 92.0217 176.769 90.907 177.235 89.7922H186.816C187.281 90.8141 187.653 91.9288 188.025 93.1365H193.886C192.863 90.4425 191.374 86.9124 189.607 83.4753C187.839 80.0381 186.351 77.3441 184.863 75.2075H179.188Z" fill="#032E59" fill-opacity="0.3"/>
<path d="M85.5118 105.864L85.7908 107.164H85.5118C84.8606 107.35 84.0234 107.536 83.0931 107.536C81.6977 107.536 80.8605 107.35 80.2093 106.7C79.3721 106.05 79 105.028 79 103.542V103.356C79 101.869 79.5582 100.755 80.4884 100.104C81.1396 99.6399 82.0698 99.4541 83.1861 99.4541C83.9303 99.4541 84.6745 99.547 85.4187 99.7328L85.6048 99.8257L85.4187 101.126L85.1397 101.033C84.5815 100.94 83.8373 100.848 83.1861 100.848C82.4419 100.848 81.7908 101.033 81.4187 101.312C80.9535 101.777 80.6745 102.52 80.6745 103.356V103.542C80.6745 104.656 80.8605 105.307 81.3256 105.678C81.6977 105.957 82.3489 106.143 83.0931 106.143C83.8373 106.143 84.6745 106.05 85.2327 105.864H85.5118ZM95.2794 107.072L95.3724 107.443H93.6049L93.5119 107.257C93.3259 106.793 93.1398 106.236 92.9538 105.771H89.4188C89.2328 106.143 89.0467 106.7 88.8607 107.257L88.7676 107.443H87.0932L87.1862 107.072C88.1165 104.563 89.4188 101.684 90.3491 99.7328L90.4421 99.6399H92.1165L92.2096 99.8257C93.1398 101.684 94.3491 104.563 95.2794 107.072ZM91.2793 101.498C90.9072 102.334 90.4421 103.356 89.977 104.47H92.4886C92.1165 103.356 91.6514 102.334 91.2793 101.498ZM104.303 107.072L104.489 107.443H102.721L102.628 107.257C102.163 106.143 101.512 105.121 100.954 104.563H98.7213V107.443H97.0469V99.6399H97.326C97.605 99.6399 98.0702 99.6399 98.3492 99.6399H100.21C101.326 99.6399 102.163 99.8257 102.628 100.104C103.28 100.476 103.559 101.126 103.559 101.962V102.055C103.559 102.891 103.187 103.634 102.442 104.099C103.187 104.842 103.931 106.05 104.303 107.072ZM101.791 101.219C101.512 101.033 101.047 100.94 100.396 100.94H98.8144V103.17H101.512C101.884 102.891 102.07 102.52 102.07 102.055V101.962C102.07 101.591 101.977 101.312 101.791 101.219Z" fill="#032E59" fill-opacity="0.3"/>
<path d="M121.049 105.121C121.049 106.607 119.932 107.443 117.979 107.443C116.955 107.443 116.118 107.257 115.188 106.978H115.002L115.281 105.678L115.56 105.771C116.397 106.049 117.235 106.142 118.072 106.142C119.095 106.142 119.56 105.771 119.56 105.121C119.56 104.935 119.467 104.656 119.374 104.563C119.188 104.377 118.816 104.192 118.072 104.006L117.421 103.82C115.839 103.355 115.095 102.705 115.095 101.498C115.095 100.104 116.304 99.2681 118.165 99.2681C119.002 99.2681 119.839 99.361 120.49 99.5468L120.676 99.6397L120.49 100.94L120.304 100.847C119.56 100.662 119.002 100.569 118.258 100.569C117.514 100.569 116.769 100.754 116.769 101.405C116.769 101.869 117.142 102.148 117.979 102.427L118.63 102.612C119.56 102.798 120.025 103.077 120.49 103.448C120.863 104.006 121.049 104.377 121.049 105.121Z" fill="#032E59" fill-opacity="0.3"/>
<path d="M108.49 99.5469C110.072 99.5469 111.002 99.6398 111.746 100.197C112.77 100.755 113.142 101.869 113.142 103.263V103.541C113.142 104.935 112.77 106.05 112.025 106.607C111.281 107.164 110.165 107.35 108.676 107.35H107.653C107.281 107.35 106.537 107.35 106.258 107.35V99.5469C106.63 99.5469 107.281 99.5469 107.653 99.5469H108.49ZM107.932 106.05H108.583C109.793 106.05 110.444 105.957 110.909 105.492C111.374 105.121 111.467 104.47 111.467 103.449V103.263C111.467 102.241 111.281 101.591 110.63 101.219C110.165 100.94 109.421 100.847 108.397 100.847H107.839V106.05H107.932Z" fill="#032E59" fill-opacity="0.3"/>
</g>
<defs>
<clipPath id="clip0_1286_1285">
<rect width="320" height="180" fill="white"/>
</clipPath>
</defs>
</svg>
