<svg width="320" height="180" viewBox="0 0 320 180" fill="none" xmlns="http://www.w3.org/2000/svg">
<g clip-path="url(#clip0_1286_1308)">
<path d="M320 0H0V180H320V0Z" fill="white"/>
<path d="M84.5328 75.2664C84.5328 71.8056 81.7272 69 78.2664 69C74.8056 69 72 71.8056 72 75.2664C72 78.7272 74.8056 81.5328 78.2664 81.5328C81.7272 81.5328 84.5328 78.7272 84.5328 75.2664Z" fill="#032E59" fill-opacity="0.35"/>
<path d="M99.2691 75.2664C99.2691 71.8056 96.4635 69 93.0027 69C89.5419 69 86.7363 71.8056 86.7363 75.2664C86.7363 78.7272 89.5419 81.5328 93.0027 81.5328C96.4635 81.5328 99.2691 78.7272 99.2691 75.2664Z" fill="#032E59" fill-opacity="0.35"/>
<path d="M114 75.2664C114 71.8056 111.194 69 107.733 69C104.272 69 101.467 71.8056 101.467 75.2664C101.467 78.7272 104.272 81.5328 107.733 81.5328C111.194 81.5328 114 78.7272 114 75.2664Z" fill="#032E59" fill-opacity="0.35"/>
<path d="M99.2691 89.9993C99.2691 86.5385 96.4635 83.7329 93.0027 83.7329C89.5419 83.7329 86.7363 86.5385 86.7363 89.9993C86.7363 93.4601 89.5419 96.2657 93.0027 96.2657C96.4635 96.2657 99.2691 93.4601 99.2691 89.9993Z" fill="#032E59" fill-opacity="0.35"/>
<path d="M99.2691 104.733C99.2691 101.272 96.4635 98.4668 93.0027 98.4668C89.5419 98.4668 86.7363 101.272 86.7363 104.733C86.7363 108.194 89.5419 111 93.0027 111C96.4635 111 99.2691 108.194 99.2691 104.733Z" fill="#032E59" fill-opacity="0.35"/>
<path d="M127.357 85.1104H121.527V81.6328H136.815V85.1104H130.969V101.104H127.357V85.1104Z" fill="#032E59" fill-opacity="0.35"/>
<path d="M145.973 92.7716C145.671 90.9572 144.478 89.5796 142.495 89.5796C140.379 89.5796 139.152 90.974 138.732 92.7716H145.973ZM149.031 96.938C148.728 98.0468 146.964 101.39 142.495 101.39C138.329 101.39 135.271 98.3324 135.271 94.0148C135.271 89.6972 138.329 86.6396 142.495 86.6396C146.393 86.6396 149.451 89.6972 149.451 93.7292C149.451 94.1492 149.4 94.4852 149.367 94.7372L149.316 95.1236H138.749C139.051 97.106 140.53 98.4668 142.512 98.4668C144.159 98.4668 145.15 97.526 145.435 96.938H149.031Z" fill="#032E59" fill-opacity="0.35"/>
<path d="M155.013 81.6328H151.535V101.104H155.013V81.6328Z" fill="#032E59" fill-opacity="0.35"/>
<path d="M167.796 92.7716C167.494 90.9572 166.301 89.5796 164.319 89.5796C162.202 89.5796 160.975 90.974 160.555 92.7716H167.796ZM170.871 96.938C170.568 98.0468 168.804 101.39 164.335 101.39C160.169 101.39 157.111 98.3324 157.111 94.0148C157.111 89.6972 160.169 86.6396 164.335 86.6396C168.233 86.6396 171.291 89.6972 171.291 93.7292C171.291 94.1492 171.24 94.4852 171.207 94.7372L171.156 95.1236H160.589C160.891 97.106 162.37 98.4668 164.352 98.4668C165.999 98.4668 166.99 97.526 167.275 96.938H170.871Z" fill="#032E59" fill-opacity="0.35"/>
<path d="M174.48 90.2687H172.111V86.9255H174.48V84.8423C174.48 82.7255 175.841 81.3647 177.958 81.3647H181.015V84.4223H178.932C178.378 84.4223 177.958 84.8423 177.958 85.3967V86.9255H181.015V90.2687H177.958V101.122H174.48V90.2687Z" fill="#032E59" fill-opacity="0.35"/>
<path d="M198.084 86.9252H201.276L201.562 88.3196H201.696C201.948 88.0172 202.284 87.7316 202.637 87.4796C203.275 87.0596 204.25 86.6396 205.594 86.6396C208.786 86.6396 211.154 89.0084 211.154 92.6204V101.104H207.677V92.906C207.677 91.0916 206.417 89.8484 204.619 89.8484C202.805 89.8484 201.562 91.1084 201.562 92.906V101.104H198.084V86.9252Z" fill="#032E59" fill-opacity="0.35"/>
<path d="M233.298 95.8292C232.844 98.0468 231.097 101.39 226.628 101.39C222.462 101.39 219.404 98.3324 219.404 94.0148C219.404 89.6972 222.462 86.6396 226.628 86.6396C231.114 86.6396 232.861 89.9828 233.298 92.066H229.82C229.518 91.2596 228.711 89.8484 226.628 89.8484C224.545 89.8484 222.865 91.5116 222.865 94.0148C222.865 96.518 224.528 98.1812 226.628 98.1812C228.728 98.1812 229.518 96.7868 229.82 95.8124H233.298V95.8292Z" fill="#032E59" fill-opacity="0.35"/>
<path d="M243.531 94.9886H240.607C238.793 94.9886 237.97 95.6774 237.97 96.803C237.97 97.9118 238.776 98.6174 240.187 98.6174C242.304 98.6174 243.531 97.391 243.531 95.4254V94.9886ZM243.799 99.7262H243.665C243.413 100.029 243.077 100.314 242.691 100.566C242.019 100.986 241.044 101.406 239.633 101.406C236.407 101.406 234.492 99.4238 234.492 97.0886C234.492 94.2998 236.441 92.351 240.339 92.351H243.531V92.0654C243.531 90.503 242.59 89.4278 241.027 89.4278C239.465 89.4278 238.659 90.4358 238.524 91.2422H235.047C235.349 88.907 237.247 86.6558 241.027 86.6558C244.639 86.6558 247.008 89.0414 247.008 92.0822V101.121H244.085L243.799 99.7262Z" fill="#032E59" fill-opacity="0.35"/>
<path d="M213.824 86.9249H217.302V101.104H213.824V86.9249ZM217.621 82.8257C217.621 81.6833 216.697 80.7593 215.555 80.7593C214.412 80.7593 213.488 81.6833 213.488 82.8257C213.488 83.9681 214.412 84.8921 215.555 84.8921C216.697 84.8753 217.621 83.9681 217.621 82.8257Z" fill="#032E59" fill-opacity="0.35"/>
<path d="M192.526 94.0147C192.526 91.5115 190.863 89.8483 188.763 89.8483C186.68 89.8483 185 91.5115 185 94.0147C185 96.5179 186.663 98.1811 188.763 98.1811C190.863 98.1811 192.526 96.5179 192.526 94.0147ZM196.004 94.0147C196.004 98.3323 192.946 101.39 188.763 101.39C184.597 101.39 181.539 98.3323 181.539 94.0147C181.539 89.6971 184.597 86.6395 188.763 86.6395C192.946 86.6395 196.004 89.6971 196.004 94.0147ZM190.023 80.9443H193.635L190.292 84.9763H187.369L190.023 80.9443Z" fill="#032E59" fill-opacity="0.35"/>
</g>
<defs>
<clipPath id="clip0_1286_1308">
<rect width="320" height="180" fill="white"/>
</clipPath>
</defs>
</svg>
