<svg width="320" height="180" viewBox="0 0 320 180" fill="none" xmlns="http://www.w3.org/2000/svg">
<g clip-path="url(#clip0_1286_1282)">
<path d="M320 0H0V180H320V0Z" fill="white"/>
<path d="M198.022 74H198.366C198.775 74.2647 198.931 74.7621 199.156 75.1741C202.26 81.0968 205.37 87.0167 208.478 92.9378C209.98 95.8223 211.513 98.6914 213 101.584V101.64C212.912 101.803 212.841 102.059 212.612 102.036C211.103 102.041 209.59 102.044 208.081 102.035C207.719 102.05 207.621 101.647 207.484 101.388C207.21 100.857 206.913 100.339 206.666 99.7942C206.242 99.062 205.908 98.2819 205.484 97.5504C205.159 96.8268 204.738 96.1555 204.41 95.4333C204.208 94.9962 203.942 94.5936 203.741 94.156C203.444 93.5058 203.058 92.9035 202.769 92.2488C202.333 91.4797 201.972 90.6706 201.536 89.9014C201.23 89.2121 200.822 88.577 200.513 87.8893C200.297 87.4163 200.008 86.9815 199.793 86.5071C199.513 85.8914 199.141 85.325 198.874 84.7033C198.741 84.4628 198.649 84.1284 198.369 84.032C198.189 84.0172 197.937 83.971 197.835 84.1676C197.365 84.9375 197.02 85.7777 196.566 86.5577C196.242 87.2808 195.818 87.9519 195.492 88.6741C195.298 89.0938 195.043 89.4807 194.848 89.899C194.699 90.2132 194.548 90.5263 194.373 90.8263C194.063 91.3589 193.842 91.9393 193.528 92.4695C193.254 92.9347 193.059 93.443 192.786 93.9083C192.499 94.3883 192.299 94.9146 192.017 95.3964C191.694 95.9446 191.466 96.5437 191.142 97.0912C190.869 97.5565 190.676 98.064 190.402 98.5293C190.115 99.0093 189.915 99.5356 189.633 100.017C189.329 100.533 189.106 101.093 188.819 101.617C188.722 101.773 188.628 101.969 188.436 102.014C188.14 102.068 187.838 102.036 187.539 102.04C186.385 102.039 185.23 102.036 184.076 102.044C183.867 102.04 183.616 102.043 183.473 101.86C183.428 101.66 183.444 101.444 183.551 101.268C188.261 92.281 192.98 83.2996 197.695 74.314C197.767 74.1764 197.897 74.0855 198.022 74.0001V74ZM108 78.3162C108.323 77.9694 108.813 78.0829 109.231 78.0711C113.436 78.0734 117.64 78.0711 121.846 78.072C123.083 78.0296 124.335 78.2199 125.496 78.6609C127.45 79.3744 129.131 80.9767 129.763 83.0147C130.043 83.7877 130.104 84.6196 130.16 85.4342C130.109 86.3066 130.005 87.1932 129.681 88.0101C129.292 88.9663 128.732 89.8875 127.896 90.5023C127.694 90.7003 127.382 90.7843 127.235 91.0334C128.347 91.4422 129.304 92.2166 130.026 93.162C131.212 94.7409 131.542 96.8306 131.34 98.7691C131.234 100.047 130.873 101.316 130.218 102.417C129.78 103.101 129.24 103.728 128.585 104.205C127.154 105.285 125.384 105.783 123.635 105.989C123.277 106.038 122.909 106.011 122.557 106.112H108.321C108.202 106.015 108.092 105.906 108 105.783V78.3161V78.3162ZM112.72 82.3317C112.585 82.4993 112.622 82.728 112.615 82.9286C112.627 85.0096 112.596 87.0912 112.63 89.1716C112.755 89.3308 112.947 89.4397 113.151 89.4286C115.87 89.4308 118.589 89.4254 121.307 89.4317C121.685 89.4482 122.058 89.3675 122.431 89.3143C123.277 89.1889 124.122 88.8482 124.712 88.1983C125.116 87.7894 125.3 87.2222 125.436 86.674C125.469 86.2301 125.609 85.7842 125.487 85.3409C125.429 84.5907 125.129 83.8616 124.63 83.3046C123.931 82.6593 122.995 82.3507 122.072 82.2371C121.776 82.2074 121.476 82.2521 121.183 82.1926C120.819 82.1125 120.446 82.1509 120.076 82.1464C117.845 82.1439 115.613 82.1486 113.383 82.1432C113.151 82.1432 112.918 82.2082 112.72 82.3319V82.3317ZM112.871 93.6055C112.781 93.6345 112.694 93.6893 112.666 93.7887C112.502 94.1115 112.536 94.4827 112.538 94.8335C112.541 96.9749 112.535 99.1162 112.54 101.257C112.544 101.564 112.712 101.997 113.074 101.96C115.947 101.961 118.819 101.958 121.691 101.961C121.98 101.971 122.268 101.961 122.553 101.907C123.564 101.82 124.61 101.614 125.461 101.021C126.146 100.527 126.522 99.7113 126.668 98.8896C126.862 97.9412 126.79 96.9488 126.519 96.0231C126.277 95.3088 125.798 94.658 125.128 94.3119C124.242 93.8152 123.225 93.6665 122.232 93.5802C119.205 93.581 116.178 93.581 113.151 93.5802C113.057 93.578 112.963 93.5864 112.871 93.6052V93.6055ZM136.029 78.0939C136.349 78.0407 136.676 78.0783 136.999 78.072C141.461 78.0711 145.923 78.0743 150.385 78.0703C152.402 78.1754 154.451 78.8934 155.908 80.3582C157.016 81.4727 157.683 83.0022 157.843 84.571C157.84 85.1921 157.869 85.8149 157.826 86.4351C157.635 87.7666 157.121 89.1074 156.136 90.0393C155.858 90.3362 155.556 90.612 155.202 90.8123C155.129 90.875 154.974 90.9063 155.02 91.0333C156.152 91.5032 157.174 92.2887 157.878 93.3124C158.18 93.7346 158.398 94.2107 158.607 94.6862C159.023 95.6425 159.101 96.7006 159.162 97.7314C159.11 98.5286 159.063 99.333 158.876 100.113C158.604 101.473 157.909 102.733 156.939 103.702C156.543 104.035 156.143 104.369 155.699 104.634C154.445 105.415 152.986 105.777 151.541 105.971C151.138 106.04 150.723 106.003 150.325 106.112H136.098C135.876 105.98 135.662 105.773 135.69 105.487C135.692 96.5571 135.692 87.6271 135.69 78.6977C135.681 78.451 135.826 78.219 136.03 78.0939H136.029ZM140.796 82.1728C140.648 82.2081 140.487 82.2629 140.408 82.4062C140.27 82.6044 140.309 82.8581 140.304 83.086C140.311 84.9924 140.306 86.8988 140.305 88.8043C140.293 89.0528 140.455 89.2673 140.641 89.409C141.194 89.4585 141.752 89.4146 142.307 89.4286C144.667 89.4271 147.026 89.4317 149.386 89.4271C150.178 89.3363 150.997 89.2312 151.691 88.802C152.407 88.4747 152.859 87.7658 153.102 87.0319C153.285 86.4383 153.222 85.811 153.225 85.1992C153.173 84.7653 153.037 84.3385 152.843 83.9484C152.288 82.9795 151.22 82.4455 150.16 82.288C149.743 82.1814 149.31 82.2692 148.892 82.1814C148.572 82.1181 148.245 82.1495 147.923 82.1463C145.64 82.1438 143.357 82.1486 141.075 82.1432C140.98 82.1438 140.887 82.1532 140.796 82.1729V82.1728ZM140.641 93.6069C140.412 93.6577 140.296 93.9037 140.308 94.1261C140.306 96.3723 140.309 98.6177 140.306 100.863C140.309 101.149 140.279 101.448 140.388 101.719C140.443 101.911 140.673 101.955 140.844 101.959C143.767 101.963 146.69 101.956 149.615 101.963C150.001 101.983 150.378 101.882 150.763 101.864C151.748 101.738 152.76 101.449 153.52 100.768C154.119 100.153 154.412 99.2922 154.477 98.4417C154.554 98.0203 154.571 97.5887 154.486 97.1673C154.411 96.2134 154.084 95.1952 153.307 94.5993C152.367 93.8606 151.148 93.6899 150.001 93.5802C147.078 93.5811 144.154 93.5811 141.231 93.5802C141.034 93.585 140.834 93.5637 140.641 93.607V93.6069ZM159.33 78.6663C159.191 78.3797 159.467 78.035 159.766 78.0703C161.203 78.0694 162.64 78.0774 164.078 78.0671C164.245 78.0586 164.43 78.0828 164.519 78.2489C164.86 78.7814 165.135 79.3555 165.409 79.9265C165.582 80.2915 165.803 80.6299 165.977 80.9949C166.296 81.699 166.709 82.3528 167.025 83.0586C167.448 83.7908 167.783 84.5709 168.206 85.3026C168.569 86.0935 169.025 86.8346 169.383 87.6278C169.695 88.1824 169.978 88.7518 170.26 89.3227C170.619 89.914 170.869 90.5627 171.223 91.157C171.47 91.5941 171.653 92.0648 171.909 92.497C172.232 93.0446 172.459 93.6446 172.783 94.1911C173.104 94.7396 173.322 95.3442 173.667 95.8774C173.822 96.1735 174.328 96.1744 174.483 95.8774C174.827 95.3433 175.045 94.7396 175.366 94.1911C175.652 93.7119 175.854 93.1862 176.135 92.7038C176.459 92.1556 176.686 91.5565 177.01 91.0083C177.33 90.4388 177.579 89.8302 177.917 89.2703C178.311 88.4298 178.786 87.6335 179.175 86.7907C179.493 86.24 179.761 85.6628 180.052 85.0975C180.392 84.539 180.628 83.9242 180.961 83.3626C181.248 82.8598 181.459 82.317 181.751 81.8164C182.046 81.3198 182.252 80.7756 182.548 80.279C182.944 79.6015 183.199 78.8387 183.667 78.2051C183.773 78.0382 183.981 78.0758 184.149 78.0664C185.56 78.0798 186.973 78.0689 188.384 78.0703C188.576 78.0484 188.737 78.1786 188.828 78.3407C188.918 78.6108 188.725 78.8567 188.603 79.0792C184.115 87.6177 179.64 96.1632 175.153 104.703C174.896 105.191 174.679 105.721 174.282 106.112H173.943C173.433 105.787 173.262 105.153 172.97 104.65C168.422 95.9904 163.884 87.323 159.331 78.6663H159.33Z" fill="#032E59" fill-opacity="0.35"/>
</g>
<defs>
<clipPath id="clip0_1286_1282">
<rect width="320" height="180" fill="white"/>
</clipPath>
</defs>
</svg>
