<svg width="320" height="180" viewBox="0 0 320 180" fill="none" xmlns="http://www.w3.org/2000/svg">
<g clip-path="url(#clip0_1286_1260)">
<path d="M320 0H0V180H320V0Z" fill="white"/>
<path d="M95.3662 76L92.2275 87.7135H96.8691L99.8706 76L103.307 89.4084H87.0083L86 93.1706H90.7652L89.3881 98.3103H94.1537L95.4709 93.1706H104.271L105.587 98.3103H110.354L104.376 76H95.3662Z" fill="#032E59" fill-opacity="0.35"/>
<path d="M135.59 75.9995H131.236V98.3098H135.59V75.9995Z" fill="#032E59" fill-opacity="0.35"/>
<path d="M127.005 84.2683C125.676 82.6741 123.878 81.877 121.609 81.877C119.279 81.877 117.583 82.654 116.52 84.208V82.247H112.504V104.686H116.858V96.5926C117.307 97.1846 117.946 97.6803 118.774 98.0796C119.602 98.479 120.547 98.6783 121.61 98.6775C123.879 98.6775 125.678 97.8804 127.005 96.2862C128.333 94.692 128.997 92.689 128.998 90.2771C128.998 87.8659 128.333 85.863 127.005 84.2683ZM123.555 93.5575C122.829 94.4159 121.873 94.8451 120.688 94.8451C119.503 94.8451 118.548 94.4159 117.822 93.5575C117.096 92.6991 116.733 91.6056 116.733 90.2771C116.734 88.9485 117.096 87.855 117.822 86.9966C118.547 86.1382 119.502 85.709 120.688 85.709C121.874 85.709 122.83 86.1382 123.555 86.9966C124.28 87.855 124.643 88.9485 124.643 90.2771C124.643 91.6056 124.28 92.6991 123.555 93.5575Z" fill="#032E59" fill-opacity="0.35"/>
<path d="M210.058 81.877C207.87 81.877 206.092 82.6331 204.724 84.1454C203.742 82.6334 202.189 81.8772 200.063 81.877C197.815 81.877 196.272 82.654 195.434 84.208V82.247H191.418V98.3101H195.771V89.0816C195.771 87.9987 196.043 87.1504 196.585 86.5367C197.128 85.923 197.899 85.6172 198.898 85.6191C200.615 85.6191 201.473 86.6717 201.473 88.7767V98.3101H205.827V89.1734C205.827 88.0495 206.093 87.1758 206.624 86.5523C207.156 85.9287 207.933 85.617 208.955 85.6173C210.672 85.6173 211.53 86.6698 211.53 88.7749V98.3101H215.884V88.2831C215.884 86.3419 215.383 84.7886 214.382 83.6234C213.38 82.4581 211.939 81.876 210.058 81.877Z" fill="#032E59" fill-opacity="0.35"/>
<path d="M150.308 82.2455V84.2065C149.245 82.6525 147.549 81.8755 145.219 81.8755C142.949 81.8755 141.151 82.6726 139.823 84.2668C138.495 85.861 137.831 87.8639 137.83 90.2756C137.83 92.6875 138.494 94.6906 139.823 96.2848C141.151 97.879 142.95 98.6761 145.219 98.6761C147.548 98.6761 149.245 97.8991 150.308 96.3451V98.3061H154.324V82.2455H150.308ZM149.005 93.5582C148.279 94.4166 147.324 94.8458 146.138 94.8458C144.953 94.8458 143.997 94.4166 143.272 93.5582C142.546 92.6998 142.183 91.6064 142.183 90.2778C142.183 88.9493 142.546 87.8558 143.272 86.9974C143.997 86.139 144.953 85.7098 146.138 85.7098C147.324 85.7098 148.279 86.139 149.005 86.9974C149.73 87.8558 150.093 88.9493 150.093 90.2778C150.094 91.6064 149.731 92.6998 149.003 93.5582H149.005Z" fill="#032E59" fill-opacity="0.35"/>
<path d="M184.149 82.2455V84.2065C183.087 82.6525 181.39 81.8755 179.06 81.8755C176.791 81.8755 174.992 82.6726 173.664 84.2668C172.336 85.861 171.672 87.8639 171.672 90.2756C171.672 92.6875 172.336 94.6906 173.664 96.2848C174.993 97.879 176.791 98.6761 179.06 98.6761C181.39 98.6761 183.087 97.8991 184.149 96.3451V98.3061H188.166V82.2455H184.149ZM182.847 93.5582C182.121 94.4166 181.165 94.8458 179.98 94.8458C178.795 94.8458 177.84 94.4166 177.113 93.5582C176.388 92.6998 176.025 91.6064 176.025 90.2778C176.026 88.9493 176.388 87.8558 177.113 86.9974C177.839 86.139 178.794 85.7098 179.98 85.7098C181.166 85.7098 182.122 86.139 182.847 86.9974C183.572 87.8558 183.935 88.9493 183.935 90.2778C183.935 91.6064 183.572 92.6998 182.847 93.5582Z" fill="#032E59" fill-opacity="0.35"/>
<path d="M234.001 90.2467C234.001 87.8353 233.26 85.8373 231.778 84.2527C230.296 82.6681 228.38 81.8762 226.03 81.877C223.679 81.877 221.748 82.6741 220.235 84.2683C218.723 85.8625 217.967 87.8552 217.967 90.2464C217.967 92.7199 218.723 94.7433 220.235 96.3166C221.748 97.8898 223.689 98.6768 226.061 98.6775C227.9 98.6775 229.509 98.1719 230.889 97.1605C232.269 96.1492 233.194 94.8258 233.664 93.1904H229.28C229.042 93.754 228.613 94.2155 228.069 94.4932C227.506 94.7892 226.877 94.9372 226.182 94.9372C225.078 94.9372 224.189 94.6459 223.514 94.0633C222.84 93.4806 222.431 92.6377 222.288 91.5343H233.938L234.001 90.2467ZM222.351 88.4075C222.535 87.4677 222.944 86.7267 223.577 86.1845C224.211 85.6423 225.018 85.3716 225.999 85.3723C227 85.3723 227.818 85.6482 228.452 86.2C229.086 86.7518 229.484 87.4876 229.647 88.4075H222.351Z" fill="#032E59" fill-opacity="0.35"/>
<path d="M170.601 85.8059V82.2446H157.232V86.0157H165.142L157.115 94.7281V98.3093H170.7V94.5386H162.514L170.601 85.8059Z" fill="#032E59" fill-opacity="0.35"/>
</g>
<defs>
<clipPath id="clip0_1286_1260">
<rect width="320" height="180" fill="white"/>
</clipPath>
</defs>
</svg>
