<svg width="320" height="180" viewBox="0 0 320 180" fill="none" xmlns="http://www.w3.org/2000/svg">
<g clip-path="url(#clip0_1286_1293)">
<path d="M320 0H0V180H320V0Z" fill="white"/>
<path d="M117.397 98.9979C115.474 100.055 111.58 100.585 109.897 100.585H107.012V79.1408C107.06 78.8043 107.205 78.4677 107.445 78.1793L108.551 76.7853C108.599 76.6451 108.599 76.4928 108.551 76.3525H101.098C101.05 76.4928 101.05 76.6451 101.098 76.7853L102.204 78.1793C102.445 78.4197 102.589 78.7563 102.637 79.1408V100.2C102.637 100.536 102.253 101.065 102.06 101.257L101.047 102.171C101 102.363 101 102.507 101.047 102.7H117.108L118.022 98.9973C117.816 98.9493 117.602 98.9493 117.397 98.9973V98.9979Z" fill="#032E59" fill-opacity="0.35"/>
<path d="M144.371 88.9489C144.178 82.0253 138.842 76.0156 131.533 76.0156C129.562 76.0156 127.591 76.4484 125.815 77.3137C121.148 79.6216 117.734 84.7663 117.734 89.9556C117.734 97.2637 123.744 103.033 130.572 103.033C132.351 103.033 134.081 102.793 135.665 102.12C140.665 100.004 144.272 95.3887 144.368 88.9459L144.371 88.9489ZM126.581 79.0926C134.803 77.4579 140.091 83.3237 140.091 90.3434C140.091 94.0965 138.457 97.9881 135.235 100.392C127.494 101.498 122.206 96.2093 122.206 88.8053C122.206 85.0069 123.456 81.401 126.584 79.0931L126.581 79.0926ZM163.026 99.4277C161.439 100.197 156.823 100.582 155.141 100.582H152.64V91.209H157.208L158.65 92.0746C158.843 92.1223 158.987 92.1223 159.179 92.0746V87.6514C159.006 87.6037 158.823 87.6037 158.65 87.6514L157.16 88.2763H152.689V78.4676H159.182L162.644 79.237C162.833 79.2847 163.032 79.2847 163.221 79.237L162.593 76.3522H146.774C146.726 76.4925 146.726 76.6447 146.774 76.785L147.88 78.179C148.121 78.4194 148.267 78.756 148.313 79.1405V100.199C148.313 100.536 147.926 101.065 147.688 101.257L146.675 102.17C146.628 102.363 146.628 102.507 146.675 102.699H162.734L163.648 99.4301C163.442 99.382 163.228 99.382 163.023 99.4301L163.026 99.4277ZM219.28 99.4277C217.693 100.197 213.077 100.582 211.395 100.582H208.894V91.209H213.462L214.904 92.0746C215.097 92.1223 215.241 92.1223 215.433 92.0746V87.6514C215.26 87.6037 215.077 87.6037 214.904 87.6514L213.414 88.2763H208.942V78.4676H215.436L218.897 79.237C219.09 79.2847 219.285 79.2847 219.522 79.237L218.897 76.3522H203.079C203.031 76.4925 203.031 76.6447 203.079 76.785L204.185 78.179C204.425 78.4194 204.572 78.756 204.618 79.1405V100.199C204.618 100.536 204.231 101.065 204.041 101.257L203.028 102.17C202.98 102.363 202.98 102.507 203.028 102.699H219.087L220 99.4301C219.664 99.3824 219.471 99.3824 219.28 99.4301V99.4277ZM201.202 76.3522H194.951C194.903 76.4925 194.903 76.6447 194.951 76.785L196.105 77.891C196.346 78.1313 196.634 78.4679 196.538 78.8045L191.009 95.9689L185.479 76.4028C184.518 76.3066 183.556 76.3066 182.642 76.4028L176.007 95.9233L171.44 78.9987C171.344 78.7584 171.392 78.4697 171.536 78.2293L172.834 76.8353C172.882 76.6951 172.882 76.5428 172.834 76.4025H165.141C165.093 76.5428 165.093 76.6951 165.141 76.8353L166.439 78.2293C166.632 78.4697 166.776 78.7101 166.872 78.9987L173.459 102.702C173.796 102.798 175.767 102.798 176.199 102.702L182.834 82.9412L188.604 102.702C189.517 102.798 190.431 102.798 191.297 102.702L198.99 79.3815C199.086 79.0449 199.278 78.7083 199.567 78.42L201.201 76.8333C201.249 76.6408 201.249 76.4967 201.201 76.3525L201.202 76.3522Z" fill="#032E59" fill-opacity="0.35"/>
</g>
<defs>
<clipPath id="clip0_1286_1293">
<rect width="320" height="180" fill="white"/>
</clipPath>
</defs>
</svg>
