<svg width="320" height="180" viewBox="0 0 320 180" fill="none" xmlns="http://www.w3.org/2000/svg">
<g clip-path="url(#clip0_1286_1326)">
<path d="M320 0H0V180H320V0Z" fill="white"/>
<path d="M111.772 75.644H87V77.4372H111.772V75.644Z" fill="#032E59" fill-opacity="0.35"/>
<path d="M139.334 75.6475H134.67V103.408H139.334V75.6475Z" fill="#032E59" fill-opacity="0.35"/>
<path d="M120.72 75.6475H116.057V103.408H120.72V75.6475Z" fill="#032E59" fill-opacity="0.35"/>
<path d="M165.6 101.616H152.332V103.409H165.6V101.616Z" fill="#032E59" fill-opacity="0.35"/>
<path d="M165.6 88.6318H152.332V90.425H165.6V88.6318Z" fill="#032E59" fill-opacity="0.35"/>
<path d="M165.6 75.6475H152.332V77.4406H165.6V75.6475Z" fill="#032E59" fill-opacity="0.35"/>
<path d="M187.404 75.6475H182.74V103.408H187.404V75.6475Z" fill="#032E59" fill-opacity="0.35"/>
<path d="M101.728 78.7969H97.0645V103.404H101.728V78.7969Z" fill="#032E59" fill-opacity="0.35"/>
<path d="M133.31 88.6318H122.08V90.425H133.31V88.6318Z" fill="#032E59" fill-opacity="0.35"/>
<path d="M150.972 75.6475H146.309V103.408H150.972V75.6475Z" fill="#032E59" fill-opacity="0.35"/>
<path d="M218.47 75C210.446 75 203.941 81.5045 203.941 89.5287C203.941 97.553 210.446 104.057 218.47 104.057C226.494 104.057 232.999 97.553 232.999 89.5287C232.999 81.5045 226.494 75 218.47 75ZM218.47 99.3937C213.021 99.3937 208.605 94.9775 208.605 89.5287C208.605 84.08 213.021 79.6638 218.47 79.6638C223.919 79.6638 228.335 84.08 228.335 89.5287C228.335 94.9775 223.919 99.3937 218.47 99.3937Z" fill="#032E59" fill-opacity="0.35"/>
<path d="M201.509 76.2039L199.775 75.6475L191.061 102.853L192.795 103.408L201.509 76.2039Z" fill="#032E59" fill-opacity="0.35"/>
</g>
<defs>
<clipPath id="clip0_1286_1326">
<rect width="320" height="180" fill="white"/>
</clipPath>
</defs>
</svg>
