<svg width="320" height="180" viewBox="0 0 320 180" fill="none" xmlns="http://www.w3.org/2000/svg">
<g clip-path="url(#clip0_1286_1305)">
<path d="M320 0H0V180H320V0Z" fill="white"/>
<path d="M185.312 93.3102C184.177 87.183 189.805 80.3897 196.886 78.4381C205.131 76.7739 212.076 79.951 213.332 86.2751C214.209 92.463 209.443 98.9383 201.455 100.8C193.905 102.207 186.628 99.4986 185.312 93.3108V93.3102ZM195.933 85.8663C193.164 89.0132 192.453 93.1286 194.344 95.0345C196.235 96.9408 200.002 95.9422 202.756 92.7953C205.509 89.6484 206.236 85.533 204.344 83.6271C202.468 81.7208 198.701 82.7194 195.933 85.8663ZM157.564 84.671C157.519 83.8389 157.11 83.2186 156.369 82.8253C155.628 82.4319 154.538 82.2201 153.131 82.2201H151.694L150.332 88.6196H151.482C153.479 88.6196 155.007 88.2867 156.082 87.6059C157.141 86.91 157.64 85.9417 157.564 84.6708V84.671ZM141.845 100.254C141.845 100.254 139.697 100.345 139.984 98.3027L143.736 80.722C143.948 79.7084 144.947 78.8913 145.96 78.8913H155.023C156.687 78.8913 158.139 78.9972 159.38 79.1939C160.636 79.3755 161.725 79.6932 162.648 80.1471C163.571 80.6009 164.282 81.191 164.796 81.9324C165.311 82.6586 165.598 83.7479 165.674 84.8372C165.825 87.3033 164.705 89.3004 162.3 90.7982C159.894 92.3111 156.445 92.886 151.936 92.886H149.44L147.851 100.254H141.845ZM106.805 84.5953C106.745 83.7329 106.382 83.1277 105.701 82.7797C105.02 82.4166 104.052 82.2351 102.766 82.2351H100.723L99.4977 87.9843H101.525C103.28 87.9843 104.611 87.6968 105.534 87.0917C106.442 86.4865 106.866 85.6544 106.805 84.5953ZM96.8801 100.254H90.783C90.3594 100.239 88.7708 100.088 89.028 98.3027L92.7801 80.722C92.9919 79.7084 93.9905 78.8913 95.0041 78.8913H105.322C106.82 78.8913 108.121 78.9821 109.241 79.1485C110.376 79.315 111.359 79.6176 112.191 80.0412C113.023 80.4648 113.568 80.8582 114.128 81.6903C114.703 82.5376 114.839 83.173 114.915 84.2018C115.096 86.6528 114.037 88.317 111.858 89.7089C109.846 90.768 107.062 90.9344 106.397 90.9495C106.397 90.9495 105.716 91.1008 106.503 91.2975C106.503 91.2975 107.471 91.5396 108.273 92.2506C109.982 93.6123 111.238 95.0193 115.111 100.239H105.958C105.958 100.239 104.385 97.0771 101.117 92.3721C100.39 91.3282 99.2103 91.4946 98.7715 91.4492L96.8801 100.254ZM223.602 96.1392H231L230.501 98.5145C230.304 99.4828 229.29 100.27 228.307 100.27H216.673C216.249 100.254 214.66 100.103 214.918 98.3178L218.67 80.7372C218.881 79.7235 219.88 78.9065 220.894 78.9065H227.324L223.602 96.1392ZM127.789 87.6516H137.502L137.018 89.8908C136.822 90.8742 135.808 91.7214 134.794 91.7214H126.927L125.974 96.1392H135.687L135.188 98.5145C134.991 99.4828 133.977 100.27 132.994 100.27H119.03C118.606 100.254 117.017 100.103 117.275 98.3178L121.027 80.7372C121.238 79.7235 122.237 78.9065 123.251 78.9065H139.379L138.895 81.1911C138.683 82.2048 137.684 83.0218 136.671 83.0218H128.788L127.789 87.6516ZM187.309 78.9067L186.825 81.1912C186.537 82.2503 185.751 82.9916 184.601 83.0219H184.086C179.472 83.0371 179.185 84.2928 178.292 88.5744L177.187 93.6579C175.841 100.133 170.001 100.255 169.502 100.255H157.807L158.306 97.9701C158.609 96.8505 159.441 96.2151 160.53 96.1394H163.344C167.959 96.1243 168.246 94.8685 169.139 90.5869L170.243 85.5034C171.635 79.0432 178.67 78.9067 179.744 78.9067H187.309Z" fill="#032E59" fill-opacity="0.35"/>
</g>
<defs>
<clipPath id="clip0_1286_1305">
<rect width="320" height="180" fill="white"/>
</clipPath>
</defs>
</svg>
