<?xml version="1.0" encoding="utf-8"?>
<!-- Generator: Adobe Illustrator 23.1.0, SVG Export Plug-In . SVG Version: 6.00 Build 0)  -->
<svg version="1.1" id="Capa_1" xmlns="http://www.w3.org/2000/svg" xmlns:xlink="http://www.w3.org/1999/xlink" x="0px" y="0px"
	 viewBox="0 0 126.7 103.2" style="enable-background:new 0 0 126.7 103.2;" xml:space="preserve">
<style type="text/css">
	.st0{fill:#1B3155;}
	.st1{fill:none;stroke:#78C3B4;stroke-width:2;stroke-miterlimit:10;}
</style>
<g>
	<path class="st0" d="M79.5,79.5c-2.3-4.8-19.3-39.6-20.8-42.6V22c2.7-0.8,4.5-3.3,4.5-6.2c0-3.6-2.9-6.5-6.5-6.5H35.2
		c-3.6,0-6.5,2.9-6.5,6.5c0,3,2,5.5,4.7,6.2v14.8c-1.5,3-18.5,37.9-20.8,42.6c-1.4,3-1.9,7.5,0.2,10.8c1.1,1.8,3.5,4,8.3,4H71
		c4.8,0,7.2-2.2,8.3-4C81.4,86.9,80.9,82.4,79.5,79.5z M30.7,15.8c0-2.5,2-4.5,4.5-4.5h21.5c2.5,0,4.5,2,4.5,4.5
		c0,2.2-1.5,4.1-3.7,4.4L57,20.3H35.4l-0.8-0.1C32.3,20,30.7,18.1,30.7,15.8z M35.3,37.5l0.1-0.2v-15h21.3v15l0.1,0.2
		c0.1,0.2,3.3,6.7,7.2,14.7l-37.3,3.1C31.2,45.9,35.3,37.5,35.3,37.5z M77.6,89.2c-1.3,2-3.5,3.1-6.6,3.1H21.1c-3.1,0-5.3-1-6.6-3.1
		c-1.7-2.7-1.2-6.5-0.1-8.9c1.2-2.4,6.3-13,11.2-23l39.3-3.3C70.2,65,76.4,77.6,77.7,80.3C78.8,82.7,79.3,86.5,77.6,89.2z"/>
	<path class="st0" d="M48.1,37.3c2.6,0,4.7-2.1,4.7-4.7c0-2.6-2.1-4.7-4.7-4.7c-2.6,0-4.7,2.1-4.7,4.7
		C43.4,35.2,45.5,37.3,48.1,37.3z M48.1,29.9c1.5,0,2.7,1.2,2.7,2.7s-1.2,2.7-2.7,2.7s-2.7-1.2-2.7-2.7S46.6,29.9,48.1,29.9z"/>
	<path class="st0" d="M55.6,65.1c-2.6,0-4.7,2.1-4.7,4.7s2.1,4.7,4.7,4.7c2.6,0,4.7-2.1,4.7-4.7S58.2,65.1,55.6,65.1z M55.6,72.5
		c-1.5,0-2.7-1.2-2.7-2.7s1.2-2.7,2.7-2.7s2.7,1.2,2.7,2.7S57.1,72.5,55.6,72.5z"/>
	<path class="st0" d="M34.5,76.7c-2.6,0-4.7,2.1-4.7,4.7c0,2.6,2.1,4.7,4.7,4.7s4.7-2.1,4.7-4.7C39.2,78.8,37.1,76.7,34.5,76.7z
		 M34.5,84.1c-1.5,0-2.7-1.2-2.7-2.7c0-1.5,1.2-2.7,2.7-2.7s2.7,1.2,2.7,2.7C37.2,82.9,36,84.1,34.5,84.1z"/>
	<path class="st0" d="M41.5,51.5c2.6,0,4.7-2.1,4.7-4.7c0-2.6-2.1-4.7-4.7-4.7s-4.7,2.1-4.7,4.7C36.8,49.4,38.9,51.5,41.5,51.5z
		 M41.5,44.1c1.5,0,2.7,1.2,2.7,2.7s-1.2,2.7-2.7,2.7s-2.7-1.2-2.7-2.7S40,44.1,41.5,44.1z"/>
</g>
<path class="st1" d="M-145.6,69.7"/>
</svg>
