<?xml version="1.0" encoding="utf-8"?>
<!-- Generator: Adobe Illustrator 23.1.0, SVG Export Plug-In . SVG Version: 6.00 Build 0)  -->
<svg version="1.1" id="Capa_1" xmlns="http://www.w3.org/2000/svg" xmlns:xlink="http://www.w3.org/1999/xlink" x="0px" y="0px"
	 viewBox="0 0 126.7 103.2" style="enable-background:new 0 0 126.7 103.2;" xml:space="preserve">
<style type="text/css">
	.st0{fill:none;stroke:#78C3B4;stroke-width:2;stroke-miterlimit:10;}
	.st1{fill:#1B3155;}
</style>
<path class="st0" d="M-145.6,69.7"/>
<g>
	<path class="st1" d="M53.5,67.4c8.4,0,15.2-6.8,15.2-15.2c0-8.4-6.8-15.2-15.2-15.2s-15.2,6.8-15.2,15.2
		C38.3,60.6,45.1,67.4,53.5,67.4z M53.5,39c7.3,0,13.2,5.9,13.2,13.2c0,7.3-5.9,13.2-13.2,13.2s-13.2-5.9-13.2-13.2
		C40.3,44.9,46.2,39,53.5,39z"/>
	<polygon class="st1" points="80.6,68.9 80.6,66.9 68.2,66.9 68.2,79.4 70.2,79.4 70.2,70.3 87,87.2 88.4,85.8 71.6,68.9 	"/>
	<polygon class="st1" points="26.4,68.9 35.4,68.9 18.8,85.5 20.2,86.9 36.8,70.3 36.8,79.4 38.8,79.4 38.8,66.9 26.4,66.9 	"/>
	<polygon class="st1" points="80.6,35.5 71.6,35.5 88.2,18.8 86.8,17.4 70.2,34.1 70.2,25 68.2,25 68.2,37.5 80.6,37.5 	"/>
	<polygon class="st1" points="26.4,35.5 26.4,37.5 38.8,37.5 38.8,25 36.8,25 36.8,34.1 20,17.2 18.6,18.6 35.4,35.5 	"/>
	<path class="st1" d="M11.4,10.1v84.3h84.3V10.1H11.4z M93.7,92.4H13.4V12.1h80.3V92.4z"/>
</g>
</svg>
