<?xml version="1.0" encoding="utf-8"?>
<!-- Generator: Adobe Illustrator 23.1.0, SVG Export Plug-In . SVG Version: 6.00 Build 0)  -->
<svg version="1.1" id="Capa_1" xmlns="http://www.w3.org/2000/svg" xmlns:xlink="http://www.w3.org/1999/xlink" x="0px" y="0px"
	 viewBox="0 0 126.7 103.2" style="enable-background:new 0 0 126.7 103.2;" xml:space="preserve">
<style type="text/css">
	.st0{fill:#1B3155;}
</style>
<g>
	<polygon class="st0" points="81.2,29 81.2,31 114.4,31 114.4,94.8 116.4,94.8 116.4,29 	"/>
	<path class="st0" d="M53.1,10.3v2.5v66.6c0,0.2,0,0.4,0.1,0.5l8.3,13.9H57h-1H12.2V31h34.3v-2H10.2v66.8H56h1h6.3
		c0.4,0,0.7-0.2,0.9-0.5l0,0l9.4-15.6V7.6H53.1V10.3z M55.9,80.4h15l-7.5,12.5L55.9,80.4z M55.1,9.6h16.5v68.8H55.1V12.8v-2.5V9.6z"
		/>
</g>
</svg>
