<?xml version="1.0" encoding="utf-8"?>
<!-- Generator: Adobe Illustrator 23.1.0, SVG Export Plug-In . SVG Version: 6.00 Build 0)  -->
<svg version="1.1" id="Capa_1" xmlns="http://www.w3.org/2000/svg" xmlns:xlink="http://www.w3.org/1999/xlink" x="0px" y="0px"
	 viewBox="0 0 126.7 103.2" style="enable-background:new 0 0 126.7 103.2;" xml:space="preserve">
<style type="text/css">
	.st0{fill:none;stroke:#78C3B4;stroke-width:2;stroke-miterlimit:10;}
	.st1{fill:#1B3155;}
</style>
<path class="st0" d="M-145.6,69.7"/>
<g>
	<path class="st1" d="M75,92.4H13.4V12.1h46.5v14c0,0.6,0.4,1,1,1H75V68h2V25.7L61.3,10.1H11.4v84.3H77V89h-2V92.4z M61.9,25.1V13.5
		l11.6,11.6H61.9z"/>
	<path class="st1" d="M68.5,64.3c2-3.2,3.1-7,3.1-11c0-11.6-9.5-21.1-21.1-21.1c-6.3,0-12,2.8-15.8,7.2H21.9v2h11.2
		c-1.4,2.1-2.5,4.5-3.1,7h-8.1v2h7.7c-0.1,1-0.2,1.9-0.2,2.9c0,1.4,0.1,2.8,0.4,4.1h-7.9v2h8.4c0.8,2.5,2,4.9,3.6,6.9h-12v2h13.8
		c3.8,3.8,9,6.1,14.8,6.1c4,0,7.8-1.2,11-3.1l19.4,19.4l7-7L68.5,64.3z M31.4,53.3c0-10.5,8.6-19.1,19.1-19.1s19.1,8.6,19.1,19.1
		c0,10.5-8.6,19.1-19.1,19.1S31.4,63.8,31.4,53.3z M63.3,70.3l4.2-4.2L85,83.7l-4.2,4.2L63.3,70.3z"/>
	<path class="st1" d="M42.3,68.3h10.9v-2H39.4C40.3,67.1,41.3,67.7,42.3,68.3z"/>
	<path class="st1" d="M34.5,59.4h27.4v-2h-28C34.1,58.1,34.3,58.7,34.5,59.4z"/>
	<path class="st1" d="M33.6,50.4h28.3v-2H34.1C33.9,49.1,33.8,49.7,33.6,50.4z"/>
	<path class="st1" d="M38.4,41.2c-0.1,0.1-0.1,0.1-0.2,0.2h23.7v-2H40.5C39.8,39.9,39.1,40.5,38.4,41.2z"/>
</g>
</svg>
