<?xml version="1.0" encoding="utf-8"?>
<!-- Generator: Adobe Illustrator 23.1.0, SVG Export Plug-In . SVG Version: 6.00 Build 0)  -->
<svg version="1.1" id="Capa_1" xmlns="http://www.w3.org/2000/svg" xmlns:xlink="http://www.w3.org/1999/xlink" x="0px" y="0px"
	 viewBox="0 0 126.7 103.2" style="enable-background:new 0 0 126.7 103.2;" xml:space="preserve">
<style type="text/css">
	.st0{fill:#1B3155;}
</style>
<path class="st0" d="M114.5,35.2c-1.6-1.9-3.9-2.9-6.3-2.9h-2.7V31c0-2.3-0.9-7.6-8.8-7.6l-30.9,0c-5.2,0-7,0-9.1-3.1
	c-2.5-3.8-3-4.6-3.8-6.1C52,12.8,50.1,9.6,45,9.6H19.8c-4.6,0-7.1,2.4-7.1,6.8v69.7c-0.4,2.4,0.3,4.8,1.8,6.6
	c1.6,1.9,3.9,2.9,6.3,2.9h79.1c4,0,7.4-2.9,8.1-6.8l8.3-46.8C116.7,39.5,116.1,37.1,114.5,35.2z M19.8,11.6H45c4,0,5.3,2.2,6.2,3.7
	c0.8,1.5,1.3,2.3,3.9,6.2c2.7,4,5.4,4,10.8,3.9l30.9,0c4.5,0,6.8,1.9,6.8,5.6v1.3H29.1c-3.9,0-7.4,2.9-8.1,6.8l-6.3,35.6V16.4
	C14.7,13.1,16.3,11.6,19.8,11.6z M114.3,41.6L106,88.4c-0.5,3-3.1,5.2-6.1,5.2H20.8c-1.9,0-3.6-0.8-4.8-2.2
	c-0.7-0.8-1.1-1.8-1.3-2.9h0v-2.3L23,39.5c0.5-2.9,3.1-5.2,6.1-5.2h79.1c1.9,0,3.6,0.8,4.8,2.2C114.2,37.9,114.6,39.8,114.3,41.6z"
	/>
</svg>
