<?xml version="1.0" encoding="utf-8"?>
<!-- Generator: Adobe Illustrator 23.1.0, SVG Export Plug-In . SVG Version: 6.00 Build 0)  -->
<svg version="1.1" id="Capa_1" xmlns="http://www.w3.org/2000/svg" xmlns:xlink="http://www.w3.org/1999/xlink" x="0px" y="0px"
	 viewBox="0 0 126.7 103.2" style="enable-background:new 0 0 126.7 103.2;" xml:space="preserve">
<style type="text/css">
	.st0{fill:#1B3155;}
</style>
<path class="st0" d="M113,35.8c0-7-2.7-13.6-7.7-18.6c-5-5-11.6-7.7-18.6-7.7c-7,0-13.6,2.7-18.6,7.7l-3.9,3.9l-3.9-3.9
	c-10.3-10.3-27-10.3-37.2,0c-5,5-7.7,11.6-7.7,18.6S18,49.4,23,54.4l1.6,1.6l-2.2,2.2c-3.3,3.3-3.3,8.5,0,11.8
	c1.7,1.7,3.8,2.5,5.9,2.5c0.8,0,1.6-0.1,2.4-0.4c-0.2,0.8-0.3,1.6-0.3,2.4c0,2.2,0.9,4.3,2.5,5.9c1.6,1.6,3.7,2.5,5.9,2.5
	c0.8,0,1.6-0.1,2.4-0.3c-0.9,2.8-0.1,6,2.1,8.3c1.7,1.7,3.8,2.5,5.9,2.5c2.1,0,4.3-0.8,5.9-2.5l2.2-2.2l4.5,4.5
	c1.7,1.7,3.9,2.6,6.1,2.6c1.8,0,3.6-0.6,5.1-1.7c1.9-1.5,3.1-3.7,3.2-6.1c0.1-1-0.1-2-0.3-2.9c0.8,0.2,1.6,0.4,2.4,0.4
	c2.1,0,4.3-0.8,5.9-2.5c1.6-1.6,2.5-3.7,2.5-5.9c0-0.8-0.1-1.6-0.3-2.4c0.8,0.2,1.6,0.4,2.4,0.4c2.1,0,4.3-0.8,5.9-2.5
	c2.5-2.5,3.1-6.2,1.8-9.3l8.9-8.9C110.3,49.4,113,42.8,113,35.8z M23.8,68.7c-2.5-2.5-2.5-6.5,0-9l5.5-5.5c1.1-1.2,2.7-1.9,4.4-1.9
	c0,0,0,0,0.1,0c1.7,0,3.3,0.7,4.5,1.9c2.5,2.5,2.5,6.5,0,9l-5.5,5.5C30.3,71.2,26.3,71.2,23.8,68.7z M38.7,81
	c-1.7,0-3.3-0.7-4.5-1.9c-1.2-1.2-1.9-2.8-1.9-4.5c0-1.7,0.7-3.3,1.9-4.5l5.5-5.5c0,0,0,0,0,0l4.6-4.6c1.2-1.2,2.8-1.8,4.5-1.8
	c1.6,0,3.3,0.6,4.5,1.8c2.5,2.5,2.5,6.5,0,9l-4.6,4.6c0,0,0,0,0,0l-5.5,5.5C42,80.3,40.4,81,38.7,81z M53.6,89.5
	c-2.5,2.5-6.5,2.5-9,0c-2.5-2.5-2.5-6.5,0-9l5.5-5.5c1.1-1.2,2.7-1.8,4.4-1.9c0,0,0,0,0.1,0c1.7,0,3.3,0.7,4.5,1.9
	c2.5,2.5,2.5,6.5,0,9L53.6,89.5z M93.2,71.2c-2.5,2.5-6.5,2.5-9,0L78,64.9l-1.4,1.4l5.5,5.6l0,0l0.7,0.7l0,0
	c1.2,1.2,1.9,2.8,1.9,4.5c0,1.7-0.7,3.3-1.9,4.5c-2.5,2.5-6.5,2.5-9,0l-0.7-0.7l-5.6-5.6l-1.4,1.4l5.6,5.6l0.7,0.7
	c1.3,1.3,2,3.1,1.9,4.9c-0.1,1.8-1,3.5-2.5,4.6c-2.5,2-6.3,1.6-8.6-0.7l-4.5-4.5l1.8-1.8c3.3-3.3,3.3-8.5,0-11.8
	c-1.6-1.6-3.7-2.5-5.9-2.5c0,0,0,0-0.1,0c-0.2,0-0.4,0-0.5,0l0.7-0.7c3.3-3.3,3.3-8.5,0-11.8l0,0c-3.3-3.2-8.6-3.2-11.8,0l-0.7,0.7
	c0.2-2.3-0.6-4.7-2.5-6.5c-1.6-1.6-3.7-2.5-6-2.5c-2.2,0-4.3,0.9-5.8,2.5l-1.8,1.8L24.4,53c-4.6-4.6-7.1-10.7-7.1-17.2
	s2.5-12.6,7.1-17.2c9.5-9.5,24.9-9.5,34.4,0l3.9,3.9l-5.2,5.2l0,0l-3.4,3.4c-3.1,3.1-3.5,7.9-0.9,11.2c1.5,1.9,3.8,3.1,6.2,3.2
	c0.2,0,0.3,0,0.5,0c2.2,0,4.3-0.9,5.9-2.4l4.5-4.3l22.9,23.3C95.7,64.7,95.7,68.7,93.2,71.2z M95.3,61.6c-0.2-0.3-0.4-0.5-0.7-0.8
	L71,36.8l-0.7-0.7l0,0l0,0l-0.7,0.7l-5.2,5c-1.3,1.3-3,1.9-4.8,1.8c-1.8-0.1-3.5-1-4.7-2.5c-1.9-2.5-1.6-6.2,0.7-8.6l8.6-8.6l0,0
	l1.4-1.4l0,0l0.9-0.9l0,0l3-3c4.6-4.6,10.7-7.1,17.2-7.1c6.5,0,12.6,2.5,17.2,7.1c4.6,4.6,7.1,10.7,7.1,17.2s-2.5,12.6-7.1,17.2
	L95.3,61.6z"/>
</svg>
