<?xml version="1.0" encoding="utf-8"?>
<!-- Generator: Adobe Illustrator 23.1.0, SVG Export Plug-In . SVG Version: 6.00 Build 0)  -->
<svg version="1.1" id="Capa_1" xmlns="http://www.w3.org/2000/svg" xmlns:xlink="http://www.w3.org/1999/xlink" x="0px" y="0px"
	 viewBox="0 0 126.7 103.2" style="enable-background:new 0 0 126.7 103.2;" xml:space="preserve">
<style type="text/css">
	.st0{fill:none;stroke:#78C3B4;stroke-width:2;stroke-miterlimit:10;}
	.st1{fill:#1B3155;}
</style>
<path class="st0" d="M-145.6,69.7"/>
<g>
	<polygon class="st1" points="63.9,31.1 113.6,31.1 104.9,39.8 106.3,41.2 117.4,30.1 106.3,19 104.9,20.4 113.6,29.1 61.9,29.1 
		61.9,72.8 10.7,72.8 10.7,74.8 63.9,74.8 	"/>
	<polygon class="st1" points="81.2,93.6 10.7,93.6 10.7,95.6 83.2,95.6 83.2,51.7 115.7,51.7 115.7,49.7 81.2,49.7 	"/>
	<polygon class="st1" points="45.2,11.5 115.7,11.5 115.7,9.5 43.2,9.5 43.2,53.4 10.7,53.4 10.7,55.4 45.2,55.4 	"/>
</g>
</svg>
