<?xml version="1.0" encoding="utf-8"?>
<!-- Generator: Adobe Illustrator 23.1.0, SVG Export Plug-In . SVG Version: 6.00 Build 0)  -->
<svg version="1.1" id="Capa_1" xmlns="http://www.w3.org/2000/svg" xmlns:xlink="http://www.w3.org/1999/xlink" x="0px" y="0px"
	 viewBox="0 0 64 52" style="enable-background:new 0 0 64 52;" xml:space="preserve">
<style type="text/css">
	.st0{fill:#032E59;}
</style>
<g>
	<path class="st0" d="M3.6,5.2l27.8,20.9L59.9,4.6v20.5h3.2V0.4H0.4v48.3h31.1v-3.2H3.6V5.2z M6.8,3.6h49.1L31.4,22.1L6.8,3.6z"/>
	<path class="st0" d="M63.2,41.1l-8.3-8.3c-0.5-0.5-1.3-0.5-1.8,0s-0.5,1.3,0,1.8l6.1,6.1H39.9l0,2.6h19.2l-6.1,6.1
		c-0.5,0.5-0.5,1.3,0,1.8c0.5,0.5,1.3,0.5,1.8,0l8.3-8.3C63.7,42.5,63.7,41.6,63.2,41.1z"/>
</g>
</svg>
