<?xml version="1.0" encoding="utf-8"?>
<!-- Generator: Adobe Illustrator 23.1.0, SVG Export Plug-In . SVG Version: 6.00 Build 0)  -->
<svg version="1.1" id="Capa_1" xmlns="http://www.w3.org/2000/svg" xmlns:xlink="http://www.w3.org/1999/xlink" x="0px" y="0px"
	 viewBox="0 0 231 114" style="enable-background:new 0 0 231 114;" xml:space="preserve">
<style type="text/css">
	.st0{fill:#7BC5B6;}
	.st1{fill:#FFFFFF;}
	.st2{fill-rule:evenodd;clip-rule:evenodd;fill:#7BC5B6;}
	.st3{fill:#032E59;}
</style>
<g>
	<g>
		<rect x="117" y="0.1" class="st0" width="114" height="114"/>
	</g>
	<g>
		<path class="st1" d="M200.4,31.2c-7.3-7.2-16.2-10.8-26.5-10.8c-10.4,0-19.3,3.6-26.5,10.8l0,0c-7.3,7.2-10.9,16-10.9,26.2
			c0,10.3,3.7,19.1,10.9,26.2c7.2,7.1,16.2,10.8,26.6,10.8c10.3,0,19.3-3.6,26.5-10.8c7.3-7.2,11-16,11-26.2
			C211.3,47.1,207.6,38.3,200.4,31.2z"/>
		<g>
			<g>
				<path class="st2" d="M156.5,53.5h-7.3V56h7.3V53.5z M149.2,58.6v5.2h-2.4V50.9h9.7v2.6h2.4V56h-2.4v2.6H149.2z"/>
			</g>
			<g>
				<path class="st0" d="M156.5,53.5h-7.3V56h7.3V53.5z M149.2,58.6v5.2h-2.4V50.9h9.7v2.6h2.4V56h-2.4v2.6H149.2z"/>
			</g>
			<g>
				<path class="st2" d="M172.8,50.9h-9.7v2.6h9.7V50.9z M163.1,58.6h9.7V56h-9.7v-2.6h-2.4v7.7h2.4V58.6z M172.8,61.2h-9.7v2.6h9.7
					V61.2z"/>
			</g>
			<g>
				<path class="st0" d="M172.8,50.9h-9.7v2.6h9.7V50.9z M163.1,58.6h9.7V56h-9.7v-2.6h-2.4v7.7h2.4V58.6z M172.8,61.2h-9.7v2.6h9.7
					V61.2z"/>
			</g>
			<g>
				<path class="st2" d="M177.7,53.5v-2.6h-2.4v12.8h2.4V56h2.4v-2.6L177.7,53.5L177.7,53.5z M185,50.9v7.7h-2.5v2.6h2.5v2.6h2.4
					V50.9H185z M180.1,58.6h2.4V56h-2.4V58.6z"/>
			</g>
			<g>
				<path class="st0" d="M177.7,53.5v-2.6h-2.4v12.8h2.4V56h2.4v-2.6L177.7,53.5L177.7,53.5z M185,50.9v7.7h-2.5v2.6h2.5v2.6h2.4
					V50.9H185z M180.1,58.6h2.4V56h-2.4V58.6z"/>
			</g>
			<g>
				<polygon class="st2" points="189.8,50.9 189.8,53.5 194.6,53.5 194.6,63.8 197.1,63.8 197.1,53.5 201.9,53.5 201.9,50.9 				"/>
			</g>
			<g>
				<polygon class="st0" points="189.8,50.9 189.8,53.5 194.6,53.5 194.6,63.8 197.1,63.8 197.1,53.5 201.9,53.5 201.9,50.9 				"/>
			</g>
		</g>
	</g>
	<g>
		<g>
			<rect y="0.1" class="st3" width="114" height="114"/>
		</g>
		<g>
			<path class="st1" d="M63,19.3c-1.2-0.1-2.4-0.2-3.6-0.3c-0.4,0-0.7,0-1.1,0h-1.4c-0.8,0-1.5,0-2.2,0c-0.8,0-1.6,0.1-2.5,0.1
				c-4.2,0.3-8.3,1-12.5,2.1c-0.1,0.1-0.3,0.1-0.4,0.1c0.1,0.2,0.3,0.2,0.4,0.3c0,0,0.1,0,0.1,0.1c0.2,0.1,0.3,0.2,0.5,0.3
				c0.3,0,0.7,0.1,1,0c0.7-0.2,0.7-0.2,1.2,0.2c0.2,0.2,0.3,0.2,0.3,0.5c0.1,0.3,0,0.4,0.3,0.6c0.2,0.2,0.4,0.2,0.5-0.1
				c0.3-0.6,0.9,0.2,0.9,0.4c0,0.5,0.1,0.2,0.3,0.4c0.1,0.1,0.1,0.8,0.6,0.9c0.2,0,0.3,0,0.4,0.2c0,0.1,0,0.2-0.1,0.3
				c-0.1,0.2-0.1,0.3-0.2,0.4c-0.2,0.6-0.2,1,0.1,1.6c0.1,0.1,0.2,0.3,0.2,0.4c0.2,0.6,0.2,0.7,0.6,0.9c0.2,0.1,0.5,0.1,0.8,0.2
				c0.2,0,0.2,0,0.4-0.1s0.3-0.1,0.4,0c0.4,0.2,0.3,0,0.4-0.2c0.3-0.4,0.4-0.1,0.4-0.7c0-0.1,0.1-0.3,0.3-0.3c0.4,0,0.5-0.2,0.9-0.2
				c0.2,0,0.5,0,0.4,0.4c-0.3,0.3-0.3,0.2-0.3,0.6c0,0.3-0.1,0.4-0.2,0.6c-0.3,0.3-0.1,0.2-0.2,0.5c0,0.2-0.1,0.2-0.2,0.4
				c-0.1,0.2,0.1,0.3,0.4,0.3c0.2-0.1,0.4-0.1,0.6,0c0.2,0,0.4,0,0.6,0c0.3,0,0.6,0,0.8,0.2c0.3,0.3,0.2,0.4,0.1,0.9
				c-0.1,0.1,0.1,0.2,0,0.4c0,0.2-0.2,0.5-0.2,0.7c0,0.1,0,0.3,0,0.4c0.1,0.2,0.2,0.3,0.3,0.4c0.1,0.2,0.3,0.3,0.5,0.4
				c0.7,0.4,0.8,0,1.3-0.1c0.3,0,0.5,0,0.7,0.1s0.3,0.2,0.5,0.4s0.3,0.3,0.4-0.1c0-0.2,0.1-0.3,0.2-0.3c0.2,0,0.1-0.1,0.2-0.2
				c0,0,0-0.1,0.1-0.1l0,0v-0.1c0.1-0.4,0.5-0.6,0.9-0.6H57c0.2,0,0.5-0.2,0.6-0.3c0.1-0.2,0.6-0.4,0.3,0.1
				c-0.1,0.1-0.1,0.1-0.1,0.3v0.1c0.1,0.2-0.1,0.3-0.1,0.4c0,0.1,0.1,0.1,0.2,0.1c0.1,0.1,0.1,0.2,0.1,0.3c0.1,0.1,0.2,0,0.3-0.2
				l0,0v-0.1c0-0.1-0.1-0.2-0.1-0.2c0-0.2,0-0.2,0.1-0.3l0.1-0.1c0.4-0.2,0.7-0.4,1-0.2c0.1,0,0.1,0.1,0.1,0.1
				c0.3,0.3,0.2,0.3,0.7,0.4c0.4,0,0.5-0.1,0.8,0.1c0.2,0.1,0.8,0.3,0.9,0c0.2-0.3,0.6-0.3,0.7-0.1c0.1,0.2,0.2,0.2,0.4,0.2l0,0
				c0.2,0,0.2,0,0.3,0.2c0.2,0.2,0,0.2,0,0.4s0,0.1,0.3,0.1c0.4,0,1,0.2,1.1,0.7c0.1,0.2,0.3,0.1,0.5,0.3c0.3,0.3,0.2,0.3,0.6,0.4
				c0.1,0,0.2,0,0.3,0c0.4-0.1,0.5-0.1,0.8,0c0.2,0.1,0.3,0.3,0.5,0.3c0.4-0.1,0.5,0.3,0.7,0.5c0.3,0.3,0.5,0.2,0.5,0.8
				c0,0.4,0,0.3,0.2,0.5c0.3,0.4,0.4,0.4-0.1,0.8c-0.3,0.3-0.3,0.4,0.2,0.2c0.2-0.1,0.3,0.1,0.6,0.2c0.2,0.1,0.2,0.3,0,0.4
				c0,0.4-0.1,0.4,0.3,0.1c0.3-0.3,0.6-0.4,1.1,0c0.2,0.1,0.3,0.2,0.5,0.4c0.4,0.4,0.8,0.5,1.4,0.5c0.4,0,0.6,0.2,0.9,0.1
				c0.4-0.1,0.8,0.2,1.1,0.6c0.1,0.2,0.3,0.4,0.5,0.5c0.5,0.2,0.7-0.1,1,0.6c0.4,1.1-0.4,2-1.1,2.8c-0.3,0.3-0.2,0.5-0.4,0.8
				c-0.3,0.3-0.7,0.1-0.6,0.5c0.1,0.2-0.1,0.3-0.2,0.5c0,0.1,0,0.2,0,0.3c0,0.3,0.1,0.5-0.1,0.7c0,0.2-0.1,0.5-0.1,0.7
				c-0.2,0.5-0.5,0.8-0.6,1.1c-0.2,0.2-0.2,0.3-0.4,0.4c-0.3,0.2-0.1,0.4-0.3,0.6c-0.1,0.1-0.1,0.1-0.2,0.2
				c-0.4,0.2-0.3,0.3-0.8,0.3c-0.9,0-2.1,0.6-2.6,1.4c-0.2,0.3-0.2,0.5-0.2,0.8c0,0.4-0.2,0.3-0.4,0.6c-0.4,0.4-0.4,1-0.8,0.8
				c-0.1,0-0.2,0.1-0.3,0.3c-0.1,0.1-0.3,0.2-0.3,0.5c0,0.2-0.1,0.2-0.3,0.4c-0.2,0.2-0.3,0.3-0.4,0.4c-0.3,0.6-0.8,0.5-1.4,0.5
				c-0.2,0-0.4-0.2-0.6-0.2c-0.4-0.2-0.3,0.1-0.1,0.3c0.1,0.1,0.1,0.1,0.2,0.1c0,0.3-0.2,0.3,0.1,0.6c0.1,0.2,0,0.4-0.2,0.6
				c-0.3,0.4-0.7,0.5-1.1,0.6c-0.2,0-0.5,0-0.8,0c-0.5,0-0.4-0.1-0.4,0.3c0,0.1-0.1,0.2-0.2,0.3c0,0.4-0.3,0.5-0.6,0.4
				c-0.6-0.2-0.4-0.3-0.5,0.1c-0.1,0.1-0.1,0.2,0,0.3c0,0,0,0.2,0.1,0.2s0.1,0,0.1,0c0.2,0,0-0.1,0.3-0.2c0.1,0,0.1,0,0.1,0.1
				C61,60.1,61,60,60.8,60s-0.2,0-0.2,0.2c0,0.3-0.2,0.2-0.2,0.4c0,0.1-0.1,0.2-0.1,0.3c-0.1,0.2-0.3,0.2-0.5,0.2
				c-0.2,0.1-0.3,0.2-0.4,0.3c-0.1,0.2-0.1,0.3,0,0.5l0.1,0.1c0.1,0.1,0.1,0.1,0.2,0.2c0.2,0.1,0.2-0.1,0.2,0.2s-0.1,0.3-0.4,0.4
				c-0.1,0.1-0.1,0.1-0.2,0.1c-0.1,0.1-0.2,0.1-0.2,0.3s-0.1,0.3-0.3,0.4c-0.4,0.2-0.4,0.2-0.3,0.7c0.1,0.3-0.1,0.3-0.3,0.3
				c-0.1,0-0.2,0-0.3,0.1s-0.2,0.2-0.2,0.4c-0.2,0.2,0.1,0-0.5,0.2c-0.2,0-0.2-0.2-0.2-0.4c0-0.1-0.1-0.2-0.1-0.2l-0.1-0.1
				c-0.1-0.3,0-0.2-0.3-0.5c-0.2-0.2,0-0.4-0.1-0.5c-0.2-0.3-0.1-0.1-0.1-0.4c0-0.1-0.1-0.2-0.1-0.3c-0.1-0.1-0.1-0.2,0.1-0.3
				c0.2-0.1,0.2-0.1,0.3-0.3c0.2-0.5,0.1-0.2-0.2-0.4c-0.1-0.1,0-0.2,0.1-0.3c0.2-0.2,0.2-0.2,0.4-0.3H57c0.1-0.1,0.1-0.2,0.2-0.5
				c0-0.3,0.1-0.5,0.2-0.7c0.1-0.2,0.1-0.3,0-0.5c-0.2-0.3-0.5,0-0.4-0.5c0.1-0.4,0.1-0.4,0.2-0.7c0.1-0.2,0-0.3,0-0.5
				c-0.1-0.5-0.1-0.5,0.2-1c0.1-0.2,0.2-0.3,0.3-0.5s0.1-0.3,0.1-0.5c0.2-0.1,0.2-0.2,0.2-0.5s0.1-0.3,0.1-0.6S58,54.6,58,54.4
				c0-0.1,0-0.2,0-0.3c0.1-0.3,0.3-0.2,0.2-0.6c-0.1-0.2,0.1-0.4,0.2-0.7c0-0.1,0.1-0.1,0.1-0.1c0.1-0.4,0.2-0.7,0.2-1
				s0.1-0.5,0-0.7c0-0.2,0-0.3,0-0.4c0.1-0.3,0.2-0.2,0.1-0.5c0-0.2-0.1-0.4,0-0.6c0.1-0.3,0-0.7,0-1.1c0-0.4-0.1-0.5-0.4-0.8
				c-0.1,0-0.1-0.1-0.2-0.1c-0.3-0.2-0.7-0.5-1-0.7c-0.1,0-0.1-0.1-0.2-0.1c-0.4-0.1-0.4,0-0.8-0.4c-0.1-0.1-0.2-0.3-0.3-0.4
				c-0.1-0.2,0.2-0.3,0-0.5c-0.1-0.1-0.3-0.2-0.3-0.3c-0.3-0.5-0.6-1-0.8-1.4c-0.3-0.7-0.7-1.3-1.2-1.8c-0.2,0-0.3-0.1-0.2-0.3
				c0-0.2-0.1-0.3-0.1-0.4c-0.2-0.4,0.4-0.6,0.6-0.7c0.2-0.1,0.2-0.3,0-0.4c-0.1,0-0.2-0.1-0.2-0.1c-0.4-0.1-0.2-0.6-0.1-0.9
				c0.2-0.2,0.2-0.4,0.3-0.6c0.1-0.3,0.1-0.4,0.3-0.4c0.3-0.1,0.3-0.1,0.4-0.4c0-0.3,0-0.3,0.2-0.3h0.1c0.6-0.5,0.5-0.8,0.4-1.5
				c0-0.4-0.1-0.5-0.3-0.8c-0.1-0.2-0.2-0.2-0.3-0.3v-0.1c0-0.3,0.1-0.3-0.2-0.6c-0.2-0.2-0.5-0.1-0.6,0.1c0,0.1,0,0.2-0.1,0.2
				c-0.2,0.2-0.2,0-0.1,0.4c0,0.1,0,0.1,0,0.2c-0.3,0.2-0.3-0.2-0.4-0.2c-0.2-0.1-0.1,0.1-0.4-0.2c-0.1-0.1-0.2-0.1-0.4-0.1h-0.3
				c-0.1,0-0.1-0.1-0.2-0.2c-0.1-0.2,0-0.3-0.3-0.3c-0.1,0-0.1,0-0.2,0c-0.3-0.2-0.1-0.2-0.4-0.1c-0.2,0-0.3-0.1-0.3-0.3
				c0.1-0.5,0-0.5-0.5-0.9c-0.2-0.2-0.3-0.4-0.3-0.5c-0.1-0.3-0.2-0.1-0.4-0.1s-0.5-0.1-0.7-0.2c-0.4-0.3-0.5-0.2-0.8-0.3
				c-0.4-0.1-0.6-0.5-0.8-0.7c-0.2-0.3-0.6-0.5-0.9-0.4c-0.3,0.1-0.4,0.4-0.8,0.3c-0.2-0.1-0.4-0.3-0.9-0.4c-0.4-0.1-0.7-0.3-1-0.4
				c-0.4-0.2-0.4-0.4-0.8-0.5c-0.8-0.2-0.4-0.1-0.7-0.5c-0.1-0.1-0.2-0.1-0.3-0.2c-0.2-0.1-0.5-0.4-0.3-0.7c0.2-0.3,0.2-0.4,0.2-0.7
				c-0.1-0.2-0.1-0.3-0.1-0.5s-0.3-0.5-0.4-0.7c-0.2-0.3-0.4-0.5-0.6-0.8c-0.8-0.3,0.1-0.4-0.3-0.8c-0.2,0-0.3-0.1-0.3-0.2
				c-0.1-0.3,0-0.3-0.3-0.6c-0.1,0-0.2-0.1-0.2-0.3c-0.1-0.2-0.1-0.4-0.2-0.6c0-0.2,0-0.3,0-0.4c0-0.4,0.1-0.4-0.3-0.5
				c-0.1,0-0.2-0.1-0.2-0.1h-0.1c-0.1,0.1-0.1,0.2-0.1,0.3c0,0.3,0,0.4,0.1,0.7c0.1,0.1,0.1,0.2,0.2,0.3c0.2,0.3,0.2,0.2,0.2,0.6
				c0,0.3,0,0.3,0.1,0.6c0.4,0.5,0.3,0.6,0.4,1.1c0,0.3,0,0.4-0.1,0.4c-0.2,0-0.3,0-0.5-0.1c-0.2-0.2-0.1-0.3,0.1-0.4
				c0.2-0.3-0.3-0.6-0.5-0.8c-0.3-0.3-0.5-0.4-0.2-0.8c0.2-0.2,0.1-0.4-0.1-0.6c-0.3-0.3-0.4-0.3-0.4-0.6c0-0.3,0-0.3,0-0.4
				c-2.1,0.6-4.2,1.3-6.3,2.2v36.5c2.7,1,5.4,1.9,8.1,2.7c4.2,1.1,8.3,1.8,12.5,2.1c0.8,0.1,1.6,0.1,2.5,0.1c0.8,0,1.5,0,2.2,0h0.7
				c0.1,0,0.3-0.1,0.4-0.1c0.5,0.1,0.1-0.4,0.3-0.5h0.1c0.2-0.1,0.2,0,0.3,0.2s0.2,0.3,0.4,0.5h0.2c1.2-0.1,2.4-0.1,3.6-0.3
				c6.4-0.6,12.9-2.1,19.2-4.6V24C75.9,21.5,69.5,19.9,63,19.3 M52.4,26.9c-0.1,0-0.1,0.1-0.2,0.1c-0.1,0-0.1,0.1-0.2,0.2
				c-0.2,0.2-0.3-0.1,0-0.3c0.1-0.1,0.2-0.1,0.2-0.1C52.5,26.7,52.8,26.9,52.4,26.9 M56.1,28.3c-0.2,0-0.3,0-0.5,0
				c-0.4,0.1-0.4,0-0.4-0.3c0.1-0.3-0.5-0.1-0.6-0.3v-0.1l0,0c-0.2-0.3-0.1-0.2-0.5-0.2c-0.1,0-0.2,0-0.3-0.1
				c-0.2-0.2-0.3-0.3-0.6-0.2c-0.3,0-0.5-0.4-0.3-0.5c0.4-0.1,0.3,0.2,0.7,0.2c0.2,0,0.3,0.1,0.5,0.2c0.1,0.1,0.2,0.1,0.4,0.1
				c0.1,0,0.1,0,0.1,0c0.1,0,0.2,0.1,0.4,0.2c0.1,0.1,0.2,0.1,0.2,0.2c0.2,0.2,0.3,0.3,0.5,0.3c0.3,0.1,0.3,0,0.5,0.2
				C56.4,28.1,56.6,28.3,56.1,28.3 M57.2,29.2c-0.1,0-0.2,0-0.3,0s-0.2,0-0.2-0.1c0-0.2,0.1-0.1,0.2-0.1l0,0c0.1,0,0.1,0,0.2,0.1
				C57.1,29.1,57.1,29.1,57.2,29.2C57.4,29.1,57.3,29.2,57.2,29.2 M58.8,29c-0.3,0-0.4-0.1-0.5,0.1c0,0.1-0.1,0.1-0.1,0.2
				s-0.1,0.1-0.2,0c-0.2-0.1-0.4-0.2-0.4-0.3c0-0.1,0-0.1,0-0.2c-0.4-0.8-0.1-0.2,0.6-0.3h0.1c0.2-0.1,0.3-0.1,0.5,0.2l0.2,0.2
				C59.6,28.9,58.9,29.1,58.8,29 M59.4,29c-0.1,0-0.1-0.1-0.1-0.1c0-0.1,0.1-0.1,0.1-0.1c0.1,0,0.1,0.1,0.1,0.1
				C59.5,29,59.5,29,59.4,29 M56.9,59.8L56.9,59.8c0.1-0.1,0.1-0.1,0.1-0.2c0-0.1,0.1,0,0.1,0.1c0,0.2,0,0.5-0.1,0.5
				c-0.2,0-0.1,0-0.1-0.2C56.8,59.9,56.8,59.9,56.9,59.8 M39.9,26.2c-0.1,0.1-0.1,0.1-0.2,0l0,0c0-0.3-0.3-0.1-0.2-0.3
				c0.1-0.2,0.2-0.2,0.2-0.2c0.1,0.1,0.1,0.1,0.2,0.2C40,26,40,26.1,39.9,26.2 M63.6,62.1c-0.1,0.3-0.2,0.2-0.5,0.1H63
				c-0.2,0-0.2,0.2-0.4,0.1c-0.2-0.1-0.2-0.2-0.2-0.4c0.1-0.1,0.1-0.2,0.2-0.2c0.2,0.1,0.3,0,0.4,0c0.1,0,0.2-0.1,0.2-0.1
				C63.7,61.6,63.7,61.9,63.6,62.1"/>
		</g>
		<g>
			<polygon class="st1" points="37.6,75.1 37.6,76.8 33.8,76.8 33.8,79.1 37.2,79.1 37.2,80.8 33.8,80.8 33.8,84.4 31.6,84.4 
				31.6,75.1 			"/>
		</g>
		<g>
			<polygon class="st1" points="39.5,75.1 41.7,75.1 41.7,82.6 44.9,82.6 44.9,84.4 39.5,84.4 			"/>
		</g>
		<g>
			<path class="st1" d="M49.4,75.1h2.4l3.3,9.2h-2.4l-0.6-2H49l-0.6,2H46L49.4,75.1z M49.4,80.8h2.1l-0.4-1.1
				c-0.1-0.4-0.2-0.7-0.4-1.2c-0.1-0.4-0.2-0.8-0.3-1.1l0,0c-0.1,0.3-0.2,0.7-0.3,1.1s-0.2,0.8-0.4,1.2L49.4,80.8z"/>
		</g>
		<g>
			<path class="st1" d="M60.6,82.8c0.4,0,0.8,0,1.1-0.1s0.6-0.2,0.8-0.3l0.4,1.6c-0.2,0.1-0.5,0.2-0.9,0.4c-0.4,0.1-1,0.2-1.6,0.2
				c-0.7,0-1.4-0.1-2-0.3c-0.6-0.2-1.1-0.5-1.5-1c-0.4-0.4-0.8-0.9-1-1.5s-0.4-1.2-0.4-2c0-0.7,0.1-1.4,0.3-2s0.6-1.1,1-1.5
				s0.9-0.7,1.5-1c0.6-0.2,1.3-0.3,2.1-0.3c0.6,0,1.2,0.1,1.6,0.2c0.4,0.1,0.7,0.2,1,0.4l-0.5,1.6c-0.2-0.1-0.5-0.2-0.8-0.3
				c-0.3-0.1-0.6-0.1-1-0.1s-0.8,0.1-1.1,0.2s-0.6,0.3-0.9,0.5c-0.3,0.2-0.5,0.6-0.6,0.9c-0.1,0.4-0.2,0.9-0.2,1.4s0.1,1,0.2,1.4
				c0.1,0.4,0.3,0.7,0.6,1s0.5,0.4,0.9,0.6C59.8,82.8,60.2,82.8,60.6,82.8"/>
		</g>
		<g>
			<path class="st1" d="M68,75c0.6,0,1.2,0.1,1.7,0.2s0.9,0.3,1.2,0.5l-0.5,1.6c-0.4-0.2-0.8-0.3-1.1-0.5c-0.4-0.1-0.8-0.2-1.1-0.2
				c-0.4,0-0.8,0.1-1,0.3c-0.2,0.2-0.4,0.4-0.4,0.7c0,0.3,0.1,0.5,0.3,0.7c0.2,0.1,0.6,0.3,1,0.4L69,79c0.3,0.1,0.7,0.3,1,0.4
				c0.3,0.2,0.5,0.4,0.8,0.6c0.2,0.2,0.4,0.5,0.5,0.8s0.2,0.6,0.2,0.9c0,0.4-0.1,0.8-0.2,1.1c-0.1,0.3-0.4,0.7-0.7,0.9
				c-0.3,0.3-0.7,0.5-1.1,0.6c-0.4,0.2-1,0.2-1.6,0.2s-1.1-0.1-1.6-0.2s-1-0.3-1.4-0.5l0.5-1.6c0.4,0.2,0.8,0.4,1.2,0.5
				c0.4,0.1,0.8,0.2,1.3,0.2s0.9-0.1,1.1-0.3c0.2-0.2,0.3-0.4,0.3-0.7c0-0.1,0-0.2-0.1-0.3c0-0.1-0.1-0.2-0.2-0.3
				c-0.1-0.1-0.3-0.2-0.5-0.3c-0.2-0.1-0.5-0.2-0.8-0.3L67,80.5c-0.3-0.1-0.7-0.3-1-0.4c-0.3-0.2-0.5-0.3-0.8-0.6
				c-0.2-0.2-0.4-0.5-0.5-0.7c-0.1-0.3-0.2-0.6-0.2-1s0.1-0.8,0.2-1.1s0.4-0.6,0.7-0.9c0.3-0.3,0.7-0.4,1.1-0.6
				C66.9,75,67.4,75,68,75"/>
		</g>
		<g>
			<path class="st1" d="M77.7,75c0.7,0,1.3,0.1,1.8,0.3c0.6,0.2,1.1,0.5,1.5,0.9s0.7,0.9,1,1.5c0.2,0.6,0.3,1.3,0.3,2
				s-0.1,1.4-0.4,2c-0.2,0.6-0.6,1.1-1,1.5s-0.9,0.7-1.5,1c-0.6,0.2-1.2,0.3-1.9,0.3c-0.7,0-1.3-0.1-1.8-0.3
				c-0.6-0.2-1.1-0.5-1.5-0.9s-0.7-0.9-1-1.5c-0.2-0.6-0.3-1.3-0.3-2s0.1-1.4,0.3-2c0.2-0.6,0.6-1.1,1-1.5s0.9-0.7,1.5-1
				C76.4,75.1,77,75,77.7,75 M75.4,79.8c0,0.5,0.1,1,0.2,1.4s0.3,0.7,0.5,1s0.5,0.4,0.7,0.6c0.3,0.1,0.6,0.2,0.9,0.2
				s0.6-0.1,0.9-0.2s0.5-0.3,0.7-0.6c0.2-0.3,0.4-0.6,0.5-1s0.2-0.8,0.2-1.4c0-0.5-0.1-1-0.2-1.4s-0.3-0.7-0.5-1s-0.5-0.4-0.7-0.6
				c-0.3-0.1-0.6-0.2-0.9-0.2s-0.6,0.1-0.9,0.2s-0.5,0.3-0.7,0.6c-0.2,0.3-0.4,0.6-0.5,1C75.4,78.8,75.4,79.2,75.4,79.8"/>
		</g>
		<g>
			<path class="st1" d="M33.5,89.5H34l1.9,5h-0.6l-0.5-1.4h-2.1l-0.5,1.4h-0.6L33.5,89.5z M32.8,92.7h1.8l-0.4-1.1
				C34.1,91.4,34,91.2,34,91c-0.1-0.2-0.2-0.5-0.3-0.8l0,0c0,0.1-0.1,0.3-0.1,0.4s-0.1,0.2-0.1,0.3c0,0.1-0.1,0.2-0.1,0.3
				c0,0.1-0.1,0.2-0.1,0.3L32.8,92.7z"/>
		</g>
		<g>
			<path class="st1" d="M38.3,89.5h1.5c0.3,0,0.5,0,0.7,0.1s0.4,0.2,0.5,0.3c0.1,0.1,0.2,0.3,0.3,0.5s0.1,0.4,0.1,0.6s0,0.4-0.1,0.5
				c-0.1,0.2-0.1,0.3-0.2,0.4c-0.1,0.1-0.2,0.2-0.3,0.3c-0.1,0.1-0.3,0.1-0.4,0.2l1.4,2.1H41l-1.2-2h-1v2h-0.5V89.5z M38.8,92h0.8
				c0.2,0,0.3,0,0.5-0.1c0.1,0,0.3-0.1,0.4-0.2c0.1-0.1,0.2-0.2,0.3-0.3c0.1-0.1,0.1-0.3,0.1-0.5c0-0.3-0.1-0.6-0.3-0.8
				c-0.3,0-0.6-0.1-1-0.1h-0.8V92z"/>
		</g>
		<g>
			<path class="st1" d="M46.2,89.5c0.3,0,0.5,0,0.8,0.1c0.2,0,0.4,0.1,0.6,0.2l-0.1,0.4c-0.2-0.1-0.4-0.2-0.6-0.2
				c-0.2,0-0.4-0.1-0.6-0.1c-0.3,0-0.5,0-0.7,0.1s-0.4,0.2-0.6,0.4c-0.2,0.2-0.3,0.4-0.4,0.6c-0.1,0.3-0.2,0.6-0.2,1
				c0,0.3,0,0.6,0.1,0.9s0.2,0.5,0.4,0.6c0.2,0.2,0.4,0.3,0.6,0.4C45.7,94,46,94,46.3,94c0.2,0,0.4,0,0.5,0s0.3-0.1,0.4-0.1v-1.6h-1
				v-0.4h1.6v2.4c-0.2,0.1-0.4,0.1-0.6,0.2c-0.2,0-0.5,0.1-0.8,0.1s-0.7-0.1-1-0.2s-0.6-0.3-0.8-0.5s-0.4-0.5-0.5-0.8
				s-0.2-0.7-0.2-1.1s0.1-0.8,0.2-1.1c0.1-0.3,0.3-0.6,0.5-0.8c0.2-0.2,0.5-0.4,0.8-0.5C45.5,89.6,45.8,89.5,46.2,89.5"/>
		</g>
		<g>
			<polygon class="st1" points="50.4,89.5 53.3,89.5 53.3,90 51,90 51,91.7 53.1,91.7 53.1,92.2 51,92.2 51,94.1 53.4,94.1 
				53.4,94.5 50.4,94.5 			"/>
		</g>
		<g>
			<path class="st1" d="M55.9,89.5h0.5l2.2,3.2c0.1,0.1,0.2,0.3,0.3,0.4s0.2,0.3,0.3,0.4l0,0c0-0.2,0-0.4,0-0.6s0-0.4,0-0.6v-3h0.6
				v5h-0.5l-2.2-3.1c-0.1-0.2-0.2-0.3-0.3-0.5s-0.2-0.4-0.3-0.5l0,0c0,0.2,0,0.5,0,0.7s0,0.5,0,0.7v2.8h-0.6V89.5z"/>
		</g>
		<g>
			<polygon class="st1" points="65.9,89.5 65.9,90 64.3,90 64.3,94.5 63.7,94.5 63.7,90 62.1,90 62.1,89.5 			"/>
		</g>
		<g>
			<rect x="68.2" y="89.5" class="st1" width="0.6" height="5"/>
		</g>
		<g>
			<path class="st1" d="M71.6,89.5h0.5l2.2,3.2c0.1,0.1,0.2,0.3,0.3,0.4c0.1,0.1,0.2,0.3,0.3,0.4l0,0c0-0.2,0-0.4,0-0.6s0-0.4,0-0.6
				v-3h0.6v5H75l-2.2-3.1c-0.1-0.2-0.2-0.3-0.3-0.5c-0.1-0.2-0.2-0.4-0.3-0.5l0,0c0,0.2,0,0.5,0,0.7s0,0.5,0,0.7v2.8h-0.6V89.5z"/>
		</g>
		<g>
			<path class="st1" d="M79.8,89.5h0.5l1.9,5h-0.6l-0.5-1.4H79l-0.5,1.4h-0.6L79.8,89.5z M79.1,92.7h1.8l-0.4-1.1
				c-0.1-0.2-0.2-0.4-0.2-0.6c-0.1-0.2-0.2-0.5-0.3-0.8l0,0c0,0.1-0.1,0.3-0.1,0.4s-0.1,0.2-0.1,0.3c0,0.1-0.1,0.2-0.1,0.3
				c0,0.1-0.1,0.2-0.1,0.3L79.1,92.7z"/>
		</g>
	</g>
</g>
</svg>
