<?xml version="1.0" encoding="utf-8"?>
<!-- Generator: Adobe Illustrator 23.1.0, SVG Export Plug-In . SVG Version: 6.00 Build 0)  -->
<svg version="1.1" id="Capa_1" xmlns="http://www.w3.org/2000/svg" xmlns:xlink="http://www.w3.org/1999/xlink" x="0px" y="0px"
	 viewBox="0 0 23.8 16.9" style="enable-background:new 0 0 23.8 16.9;" xml:space="preserve">
<style type="text/css">
	.st0{fill:#7BC5B6;}
</style>
<path class="st0" d="M23.5,1.2L23.5,1.2c-0.2-0.5-0.6-0.9-1.1-1.1c-0.6-0.2-1.2,0-1.7,0.5L8.4,12.8c-1.6-1.6-5.1-5.1-5.6-5.7
	L2.4,6.7L0.1,9.1l0.3,0.3c0,0,4.8,4.8,6.8,6.8c0.1,0.1,0.3,0.3,0.5,0.4c0.3,0.1,0.5,0.2,0.8,0.2c0.5,0,0.9-0.2,1.3-0.6L22.9,3
	c0.1-0.1,0.2-0.2,0.3-0.3C23.5,2.3,23.6,1.7,23.5,1.2z"/>
</svg>
