<svg width="19" height="19" viewBox="0 0 19 19" fill="none" xmlns="http://www.w3.org/2000/svg">
<g clip-path="url(#clip0_3151_86)">
<path d="M16.8826 3.86704C15.3814 1.90337 13.4043 0.703723 10.9916 0.308308C8.51862 -0.10051 6.22656 0.415539 4.17577 1.82965C2.09817 3.26386 0.784586 5.26774 0.28194 7.78097C0.235027 8.00214 0.214921 8.2367 0.188113 8.45787C0.174709 8.55169 0.168007 8.63882 0.154603 8.73265C0.147902 8.78626 0.1412 8.83318 0.127796 8.88679L0.121094 8.9136V10.0864V10.0998C0.134498 10.2138 0.154603 10.3344 0.168007 10.4483C0.194815 10.6762 0.221623 10.9041 0.261835 11.1386C0.643845 13.2632 1.66254 15.0727 3.29781 16.5203C4.67841 17.7401 6.32709 18.4974 8.19023 18.7655C8.4315 18.799 8.65937 18.8258 8.86713 18.8526H10.04H10.0467C10.1606 18.8392 10.2745 18.8258 10.3818 18.8124C10.6096 18.7856 10.8509 18.7521 11.0855 18.7118C13.1899 18.3365 14.9927 17.3245 16.4336 15.7161C17.7003 14.2953 18.471 12.6332 18.7123 10.7767C19.0474 8.2233 18.4308 5.89773 16.8826 3.86704ZM17.4456 9.52348C17.4389 13.9199 13.8601 17.4988 9.4636 17.4988C7.33238 17.4988 5.3218 16.661 3.80716 15.1464C2.29922 13.6385 1.47489 11.6346 1.47489 9.51007C1.48159 5.1136 5.06042 1.53476 9.4569 1.53476C11.5881 1.53476 13.5987 2.37251 15.1133 3.88714C16.6213 5.39508 17.4456 7.39896 17.4456 9.52348Z" fill="#032E59"/>
<path d="M13.3299 12.4053C13.3031 12.3919 13.283 12.3718 13.2696 12.3584L13.2428 12.3316C12.2576 11.3464 11.2456 10.3344 10.2403 9.33586C10.1666 9.26214 10.1398 9.20852 10.1398 9.11469V3.66602H8.7994L8.786 3.75314C8.7793 3.80005 8.7793 3.84027 8.7793 3.86707C8.7793 5.75702 8.7793 7.71399 8.786 9.63744C8.786 9.73797 8.83961 9.85861 8.91334 9.93903L12.3313 13.357C12.3715 13.3972 12.405 13.4307 12.4386 13.4508L12.5123 13.5045L12.5726 13.4441C12.8407 13.1694 13.1155 12.8946 13.4036 12.6064L13.4841 12.526L13.3969 12.4523C13.3768 12.4389 13.35 12.4255 13.3299 12.4053Z" fill="#032E59"/>
</g>
<defs>
<clipPath id="clip0_3151_86">
<rect width="19" height="19" fill="white"/>
</clipPath>
</defs>
</svg>
