<?xml version="1.0" encoding="utf-8"?>
<!-- Generator: Adobe Illustrator 23.1.0, SVG Export Plug-In . SVG Version: 6.00 Build 0)  -->
<svg version="1.1" id="Capa_1" xmlns="http://www.w3.org/2000/svg" xmlns:xlink="http://www.w3.org/1999/xlink" x="0px" y="0px"
	 viewBox="0 0 46 46" style="enable-background:new 0 0 46 46;" xml:space="preserve">
<style type="text/css">
	.st0{fill:#032E59;}
</style>
<path class="st0" d="M19.3,35.9c0-0.1,0-0.2,0-0.3c0-3.6,0-7.3,0-10.9c0-0.1,0-0.2,0-0.3c-1.3,0-2.6,0-3.9,0c0-1.5,0-3,0-4.5
	c1.3,0,2.6,0,3.9,0c0-0.1,0-0.2,0-0.3c0-1.2,0-2.4,0-3.5c0.1-1.4,0.5-2.7,1.5-3.8c0.8-0.8,1.7-1.3,2.8-1.5c0.9-0.2,1.7-0.2,2.6-0.1
	c0.7,0,1.4,0.1,2.1,0.1c0,0,0.1,0,0.2,0c0,1.3,0,2.7,0,4c-0.1,0-0.2,0-0.3,0c-0.9,0-1.8,0-2.7,0c-1,0-1.6,0.6-1.7,1.7
	c0,1.1,0,2.2,0,3.3c0,0,0,0,0,0.1c1.4,0,2.9,0,4.4,0c-0.2,1.5-0.4,3-0.6,4.5c-1.3,0-2.6,0-3.8,0c0,0.1,0,0.2,0,0.2
	c0,3.7,0,7.4,0,11.1c0,0,0,0.1,0,0.2C22.4,35.9,20.8,35.9,19.3,35.9z"/>
</svg>
