<?xml version="1.0" encoding="utf-8"?>
<!-- Generator: Adobe Illustrator 23.1.0, SVG Export Plug-In . SVG Version: 6.00 Build 0)  -->
<svg version="1.1" id="Capa_1" xmlns="http://www.w3.org/2000/svg" xmlns:xlink="http://www.w3.org/1999/xlink" x="0px" y="0px"
	 viewBox="0 0 120.3 120.3" style="enable-background:new 0 0 120.3 120.3;" xml:space="preserve">
<style type="text/css">
	.st0{fill:#FFFFFF;}
</style>
<path class="st0" d="M60.2,5.8C29.9,5.8,5.4,30.3,5.4,60.6c0,26.7,19.1,48.9,44.4,53.8c0.2,0.1,0.3,0.2,0.3,0.2v-0.1V77.5H36.8V64.2
	h13.3v-12C50.1,38.5,58.3,31,71,31c6.1,0,12.4,1.1,12.4,1.1v12.2h-5.5c-6.8-2.2-7.8,6.3-7.8,6.3v13.7h14l-2.4,13.3H70.1v37v0.1
	c22.3-3.7,40.6-22.1,44.2-45.4c0-0.1,0-0.2,0.1-0.3c0.1-0.6,0.2-1.3,0.2-2c0-0.3,0.1-0.6,0.1-0.9c0-0.3,0.1-0.7,0.1-1
	c0.1-1.4,0.2-2.9,0.2-4.3C115,30.3,90.4,5.8,60.2,5.8z"/>
</svg>
