<?xml version="1.0" encoding="utf-8"?>
<!-- Generator: Adobe Illustrator 23.1.0, SVG Export Plug-In . SVG Version: 6.00 Build 0)  -->
<svg version="1.1" id="Capa_1" xmlns="http://www.w3.org/2000/svg" xmlns:xlink="http://www.w3.org/1999/xlink" x="0px" y="0px"
	 viewBox="0 0 23.4 18" style="enable-background:new 0 0 23.4 18;" xml:space="preserve">
<style type="text/css">
	.st0{fill:#032E59;}
</style>
<g>
	<path class="st0" d="M11.3,3.2c-0.4-1.3-1.6-2.2-3.1-2.2S5.5,1.9,5.1,3.2H0v2.3h5.2c0.5,1.2,1.7,2,3,2s2.5-0.8,3-2h12.2V3.2H11.3z"
		/>
	<path class="st0" d="M15.5,10.5c-1.5,0-2.7,1-3.1,2.4H0v2.3h12.6c0.5,1.1,1.6,1.8,2.9,1.8c1.3,0,2.4-0.8,2.9-1.8h5v-2.3h-4.8
		C18.2,11.6,17,10.5,15.5,10.5z"/>
</g>
</svg>
