<?xml version="1.0" encoding="utf-8"?>
<!-- Generator: Adobe Illustrator 23.1.0, SVG Export Plug-In . SVG Version: 6.00 Build 0)  -->
<svg version="1.1" id="Capa_1" xmlns="http://www.w3.org/2000/svg" xmlns:xlink="http://www.w3.org/1999/xlink" x="0px" y="0px"
	 viewBox="0 0 46 46" style="enable-background:new 0 0 46 46;" xml:space="preserve">
<style type="text/css">
	.st0{fill:#032E59;}
</style>
<path class="st0" d="M34.6,17.9c0-2.7-1.3-4.7-3.7-5.9c-0.5-0.3-1.1-0.4-1.8-0.5c-0.1,0-0.1,0-0.2,0c-3.6,0-7.2,0-10.9,0
	c-0.3,0-0.7,0.1-1,0.2c-2.5,0.7-4,2.4-4.6,5c0,0.2-0.1,0.5-0.1,0.7c0,3.7,0,7.5,0,11.3c0.1,0.3,0.1,0.7,0.2,1
	c0.7,2.6,2.3,4.2,4.8,4.7c0.4,0.1,0.8,0.1,1.3,0.1c3.3,0,6.5,0,9.7,0c2.2,0,3.9-0.9,5.2-2.8c0.8-1.1,1.1-2.3,1.1-3.6
	C34.6,24.7,34.6,21.3,34.6,17.9z M23.5,28.9c-3.2,0-5.7-2.7-5.7-6c0-3.3,2.6-6,5.7-5.9c3.1,0,5.7,2.7,5.7,5.9
	C29.2,26.3,26.6,28.9,23.5,28.9z M29.5,18.3c-0.8,0-1.5-0.7-1.5-1.5c0-0.8,0.7-1.5,1.4-1.5c0.8,0,1.5,0.7,1.5,1.5
	C30.9,17.7,30.2,18.3,29.5,18.3z"/>
<path class="st0" d="M23.5,19.1c-2.1,0-3.7,1.7-3.8,3.9c0,2.1,1.7,3.9,3.7,3.9c2.1,0,3.8-1.7,3.8-3.9C27.2,20.9,25.6,19.1,23.5,19.1
	z"/>
</svg>
