<?xml version="1.0" encoding="utf-8"?>
<!-- Generator: Adobe Illustrator 23.1.0, SVG Export Plug-In . SVG Version: 6.00 Build 0)  -->
<svg version="1.1" id="Capa_1" xmlns="http://www.w3.org/2000/svg" xmlns:xlink="http://www.w3.org/1999/xlink" x="0px" y="0px"
	 viewBox="0 0 120.3 120.3" style="enable-background:new 0 0 120.3 120.3;" xml:space="preserve">
<style type="text/css">
	.st0{fill:#FFFFFF;}
</style>
<g>
	<path class="st0" d="M35.8,10.6c16.1,0,32.3,0,48.4,0c0.3,0.1,0.6,0.1,0.9,0.2c2.7,0.3,5.4,0.9,7.8,2.1c10.7,5,16.4,13.5,16.6,25.3
		c0.2,14.7,0.1,29.4,0,44.2c0,5.7-1.5,11-4.9,15.6c-5.6,7.9-13.4,11.8-23,11.9c-14.5,0-28.9,0-43.4,0c-1.9,0-3.8-0.1-5.6-0.5
		c-11.2-2.5-18.4-9.3-21.5-20.4c-0.4-1.4-0.5-3-0.8-4.5c0-16.1,0-32.3,0-48.4c0.2-1,0.3-2,0.5-3c2.5-11.2,9.3-18.4,20.4-21.5
		C32.8,11,34.3,10.8,35.8,10.6z M100.8,60.3c0-7.2,0-14.4,0-21.6c0-2.3-0.2-4.5-1-6.7c-2.8-7.9-9.6-12.6-18.1-12.6
		c-14.5,0-28.9,0-43.4,0c-2.2,0-4.4,0.3-6.5,1c-7.9,2.7-12.7,9.5-12.7,18.1c0,14.4,0,28.9,0,43.3c0,2.2,0.3,4.4,1,6.5
		c2.6,7.9,9.5,12.7,18,12.7c14.5,0,29,0,43.6,0c6.5,0,11.7-2.6,15.5-7.8c2.5-3.4,3.5-7.2,3.5-11.4C100.8,74.6,100.8,67.4,100.8,60.3
		z"/>
	<path class="st0" d="M60,85.7c-14.1,0-25.6-11.6-25.5-25.6C34.5,46.1,46,34.5,60,34.6c14,0.1,25.5,11.5,25.5,25.5
		C85.6,74.2,74,85.7,60,85.7z M76.7,60.2C76.8,51,69.3,43.5,60,43.4c-9.2-0.1-16.7,7.4-16.8,16.7c-0.1,9.2,7.4,16.7,16.7,16.8
		C69.1,76.9,76.7,69.5,76.7,60.2z"/>
	<path class="st0" d="M86.6,27.2c3.6,0,6.5,3,6.5,6.5c0,3.5-2.9,6.4-6.4,6.4c-3.5,0-6.5-3-6.5-6.5C80.2,30,83.1,27.2,86.6,27.2z"/>
</g>
</svg>
