<?xml version="1.0" encoding="utf-8"?>
<!-- Generator: Adobe Illustrator 23.1.0, SVG Export Plug-In . SVG Version: 6.00 Build 0)  -->
<svg version="1.1" id="Capa_1" xmlns="http://www.w3.org/2000/svg" xmlns:xlink="http://www.w3.org/1999/xlink" x="0px" y="0px"
	 viewBox="0 0 120.3 120.3" style="enable-background:new 0 0 120.3 120.3;" xml:space="preserve">
<style type="text/css">
	.st0{fill:#FFFFFF;}
</style>
<g>
	<path class="st0" d="M111.1,109.5c-7.1,0-14.2,0-21.4,0c0-0.5,0-0.9,0-1.2c0-11.6,0-23.2,0-34.8c0-2.4-0.2-4.8-0.7-7.2
		c-1.3-6.6-5.6-9.2-12.1-8.5c-6.1,0.6-9.4,3.9-10.4,10.2c-0.4,2.5-0.6,5.1-0.6,7.7c-0.1,10.8,0,21.7,0,32.5c0,0.4,0,0.8,0,1.3
		c-7.1,0-14.2,0-21.3,0c0-22.9,0-45.9,0-68.8c6.8,0,13.6,0,20.5,0c0,3.1,0,6.2,0,9.6c0.3-0.4,0.5-0.5,0.6-0.6
		c3.6-6,9.1-9.3,15.8-10.3c5.2-0.8,10.5-0.4,15.5,1.4c6.6,2.4,10.4,7.3,12.3,13.8c1.1,3.6,1.6,7.2,1.8,10.9c0,0.6,0.1,1.1,0.2,1.7
		C111.1,81.1,111.1,95.3,111.1,109.5z"/>
	<path class="st0" d="M21.7,6.2c0.9,0.3,1.9,0.5,2.8,0.8c5.7,2.1,9,8,7.9,14c-1.1,5.8-6.4,10.2-12.3,10.1C14,31,8.8,26.5,7.9,20.5
		c-1-6.7,3.4-13,10.2-14.1c0.2,0,0.4-0.1,0.6-0.2C19.7,6.2,20.7,6.2,21.7,6.2z"/>
	<path class="st0" d="M9.5,40.5c7.1,0,14.2,0,21.3,0c0,23,0,45.9,0,68.9c-7.1,0-14.1,0-21.3,0C9.5,86.5,9.5,63.5,9.5,40.5z"/>
</g>
</svg>
