<?xml version="1.0" encoding="utf-8"?>
<!-- Generator: Adobe Illustrator 23.1.0, SVG Export Plug-In . SVG Version: 6.00 Build 0)  -->
<svg version="1.1" id="Capa_1" xmlns="http://www.w3.org/2000/svg" xmlns:xlink="http://www.w3.org/1999/xlink" x="0px" y="0px"
	 viewBox="0 0 46 46" style="enable-background:new 0 0 46 46;" xml:space="preserve">
<style type="text/css">
	.st0{fill:#032E59;}
</style>
<path class="st0" d="M35,32.7c-1.5,0-3.1,0-4.6,0c0-0.1,0-0.2,0-0.3c0-2.5,0-5,0-7.5c0-0.5,0-1-0.2-1.6c-0.3-1.4-1.2-2-2.6-1.8
	c-1.3,0.1-2,0.8-2.2,2.2c-0.1,0.5-0.1,1.1-0.1,1.7c0,2.3,0,4.7,0,7c0,0.1,0,0.2,0,0.3c-1.5,0-3.1,0-4.6,0c0-4.9,0-9.9,0-14.9
	c1.5,0,2.9,0,4.4,0c0,0.7,0,1.3,0,2.1c0.1-0.1,0.1-0.1,0.1-0.1c0.8-1.3,2-2,3.4-2.2c1.1-0.2,2.3-0.1,3.3,0.3c1.4,0.5,2.2,1.6,2.7,3
	c0.2,0.8,0.3,1.6,0.4,2.4c0,0.1,0,0.2,0,0.4C35,26.5,35,29.6,35,32.7z"/>
<path class="st0" d="M15.7,10.3c0.2,0.1,0.4,0.1,0.6,0.2c1.2,0.5,1.9,1.7,1.7,3c-0.2,1.3-1.4,2.2-2.7,2.2c-1.3,0-2.4-1-2.6-2.3
	c-0.2-1.4,0.7-2.8,2.2-3c0,0,0.1,0,0.1,0C15.3,10.3,15.5,10.3,15.7,10.3z"/>
<path class="st0" d="M13.1,17.8c1.5,0,3.1,0,4.6,0c0,5,0,9.9,0,14.9c-1.5,0-3,0-4.6,0C13.1,27.7,13.1,22.7,13.1,17.8z"/>
</svg>
