<?xml version="1.0" encoding="utf-8"?>
<!-- Generator: Adobe Illustrator 23.1.0, SVG Export Plug-In . SVG Version: 6.00 Build 0)  -->
<svg version="1.1" id="Capa_1" xmlns="http://www.w3.org/2000/svg" xmlns:xlink="http://www.w3.org/1999/xlink" x="0px" y="0px"
	 viewBox="0 0 33.4 31.5" style="enable-background:new 0 0 33.4 31.5;" xml:space="preserve">
<style type="text/css">
	.st0{fill:#032E59;}
</style>
<path class="st0" d="M33.2,29.1l-9.4-9.4c1.2-1.9,1.9-4.2,1.9-6.7C25.7,6,20,0.3,12.9,0.3S0.1,6,0.1,13.1s5.7,12.8,12.8,12.8
	c3.5,0,6.7-1.4,9-3.8l9.1,9.1L33.2,29.1z M12.9,22.9c-5.4,0-9.8-4.4-9.8-9.8c0-5.4,4.4-9.8,9.8-9.8c5.4,0,9.8,4.4,9.8,9.8
	C22.7,18.5,18.3,22.9,12.9,22.9z"/>
</svg>
