<?xml version="1.0" encoding="utf-8"?>
<!-- Generator: Adobe Illustrator 23.1.0, SVG Export Plug-In . SVG Version: 6.00 Build 0)  -->
<svg version="1.1" id="Capa_1" xmlns="http://www.w3.org/2000/svg" xmlns:xlink="http://www.w3.org/1999/xlink" x="0px" y="0px"
	 viewBox="0 0 21 17" style="enable-background:new 0 0 21 17;" xml:space="preserve">
<style type="text/css">
	.st0{fill:#032E59;}
</style>
<path class="st0" d="M18.7,12.9c0-0.1-0.1-0.3-0.1-0.3c-0.1-0.1-0.3-0.2-0.5-0.2h-1V3.1c0-0.9-0.4-1.4-1.3-1.4H3.2
	c-0.9,0-1.3,0.5-1.3,1.4v9.2h-1c-0.2,0-0.4,0.1-0.5,0.2c-0.1,0.1-0.1,0.2-0.1,0.3c0,0.1,0,0.4,0,0.4c0.1,1.1,1.3,2.2,2.1,2.2
	c4.6,0,11.8,0,14.2,0c0.8,0,2-1.2,2.1-2.2C18.7,13.3,18.7,13,18.7,12.9z M3,12.2v-9C3,3.1,3,3,3,3c0,0,0.1,0,0.2,0h12.5
	c0.1,0,0.2,0,0.2,0c0,0,0,0.1,0,0.2v9c0,0.1,0,0.2,0,0.2c0,0-0.1,0-0.2,0H3.2c-0.1,0-0.1,0-0.2,0C3,12.3,3,12.2,3,12.2z M9.8,15.5
	C9.8,15.5,9.9,15.5,9.8,15.5C9.9,15.5,9.8,15.5,9.8,15.5z M16.5,14.3H2.4c-0.3,0-0.6-0.4-0.8-0.7h15.8
	C17.2,13.9,16.8,14.3,16.5,14.3z"/>
</svg>
