<svg xmlns="http://www.w3.org/2000/svg" viewBox="0 0 140.82578 216.80846">
  <path fill="#fff" d="m 70.619383,136.41894 c -0.767,1.346 -1.485,2.65 -2.243,3.93 -1.589,2.686 -3.044,5.441 -4.649,8.119 -2.064,3.446 -3.918,7.017 -5.945,10.487 -1.105,1.892 -2.271,3.762 -3.33,5.673 -1.855,3.353 -3.844,6.627 -5.714,9.971 -1.298,2.322 -2.706,4.596 -4.064,6.888 -1.338,2.258 -2.635,4.549 -3.941,6.828 -1.476,2.574 -3.084,5.074 -4.54,7.66 -1.377,2.447 -2.874,4.823 -4.258,7.261 -1.304,2.295 -2.679,4.551 -3.955,6.862 -1.179,2.139 -2.504,4.195 -3.707,6.319 -0.326,0.574 -0.579,0.436 -0.888,0.101 -1.9,-2.068 -3.791,-4.145 -5.682,-6.221 -2.345,-2.574 -4.683,-5.157 -7.035,-7.729 -2.31,-2.524 -4.645,-5.025 -6.944,-7.56 -1.156,-1.272 -2.221,-2.626 -3.48200002,-3.801 -0.344,-0.319 -0.278,-0.738 -0.073,-1.034 1.77500002,-2.581 3.24100002,-5.347 4.90400002,-7.995 1.015,-1.616 1.967,-3.288 2.921,-4.949 1.417,-2.468 2.878,-4.913 4.349,-7.351 1.783,-2.956 3.625,-5.877 5.388,-8.846 1.766,-2.974 3.457,-5.989 5.2,-8.976 0.997,-1.707 2.038,-3.387 3.046,-5.088 1.389,-2.341 2.763,-4.689 4.146,-7.032 1.532,-2.599 3.162,-5.145 4.576,-7.804 1.802,-3.393 3.891,-6.615 5.687,-10.01 1.258,-2.378 2.776,-4.618 4.049,-6.988 1.264,-2.354 2.624,-4.654 3.901,-7.002 0.594,-1.092 1.287,-2.125 1.854,-3.238 0.225,-0.443 0.189,-0.64 -0.042,-0.973 -1.477,-2.132 -2.914,-4.292004 -4.418,-6.405004 -2.888,-4.054 -5.588,-8.234 -8.281,-12.417 -1.239,-1.925 -2.363,-3.937 -3.381,-5.989 -1.108,-2.237 -2.181,-4.516 -2.986,-6.873 -0.562,-1.646 -1,-3.36 -1.433,-5.062 -0.788,-3.097 -0.835,-6.205 -0.793,-9.341 0.026,-1.968 0.456,-3.885 0.766,-5.822 0.286,-1.785 0.933,-3.439 1.398,-5.153 0.316,-1.164 0.938,-2.243 1.411,-3.365 0.536,-1.272 1.011,-2.578 1.597,-3.818 0.684,-1.447 1.188,-2.966 1.919,-4.394 0.687,-1.339 1.152,-2.79 1.771,-4.167 0.873,-1.942 1.717,-3.903 2.517,-5.869 1.113,-2.741 2.246,-5.472 3.476,-8.158 0.775,-1.691 1.869,-3.232 3.029,-4.684 1.635,-2.045 3.403,-3.9779996 5.463,-5.6249996 2.13,-1.702 4.372,-3.186 6.868,-4.328 2.294,-1.049 4.699,-1.56799996 7.132,-2.12399996 2.283,-0.522 4.548,-0.248 6.817,-0.304 1.034,-0.026 2.063,0.347 3.076,0.576 1.257,0.284 2.548,0.49799996 3.751,1.02499996 1.725,0.755 3.433,1.512 5.063,2.487 1.595,0.955 3.087,2.044 4.461,3.253 1.975,1.739 3.773,3.6649996 5.297,5.8489996 0.943,1.353 1.896,2.69 2.625,4.167 0.553,1.117 1.018,2.277 1.506,3.425 0.499,1.171 0.974,2.354 1.467997,3.528 0.534,1.271 1.012,2.574 1.6,3.812 0.639,1.347 1.093,2.763 1.734,4.099 0.716,1.49 1.282,3.042 1.969,4.541 0.871,1.907 1.65,3.855 2.505,5.771 0.774,1.734 1.582,3.482 2.144,5.292 1.604,5.164 2.163,10.474 1.608,15.857 -0.21,2.044 -0.532,4.109 -1.204,6.062 -0.724,2.104 -1.464,4.201 -2.386,6.245 -1.125,2.499 -2.378,4.919 -3.719,7.296 -2.127,3.767 -4.456,7.405 -6.889997,10.986 -1.995,2.936 -4,5.871004 -5.959,8.833004 -0.266,0.401 -0.572,0.777 -0.82,1.188 -0.496,0.821 0.242,1.377 0.557,1.933 1.357,2.393 2.741,4.769 4.064,7.183 1.3,2.37 2.729,4.671 4.066,7.021 1.213997,2.134 2.299997,4.345 3.596997,6.425 0.955,1.535 1.843,3.11 2.772,4.657 1.06,1.761 2.047,3.57 3.1,5.341 1.362,2.291 2.673,4.612 4.015,6.915 1.028,1.763 2.06,3.527 3.113,5.275 1.849,3.065 3.683,6.139 5.488,9.227 1.748,2.986 3.503,5.975 5.282,8.942 1.773,2.959 3.573,5.911 5.352,8.868 2.029,3.374 4.034,6.766 6.043,10.156 0.772,1.304 1.539,2.612 2.347,3.894 0.292,0.464 0.224,0.734 -0.164,1.111 -3.456,3.36 -6.88,6.751 -10.33,10.114 -3.122,3.047 -6.252,6.083 -9.304,9.203 -1.617,1.651 -3.334,3.205 -5.012,4.798 -0.649,0.619 -0.863,0.594 -1.266,-0.186 -1.329,-2.577 -2.801,-5.074 -4.217,-7.603 -1.406,-2.513 -2.822,-5.022 -4.192,-7.557 -1.273,-2.356 -2.609,-4.68 -3.871,-7.046 -1.152,-2.159 -2.355997,-4.295 -3.549997,-6.434 -1.543,-2.766 -3.041,-5.562 -4.617,-8.304 -1.659,-2.889 -3.258,-5.812 -4.92,-8.697 -1.325,-2.303 -2.59,-4.651 -3.867,-6.986 -1.78,-3.259 -3.653,-6.468 -5.459,-9.716 -1.733,-3.118 -3.431,-6.257 -5.147,-9.385 -1.173,-2.138 -2.347,-4.276 -3.534,-6.406 -0.118,-0.208 -0.331,-0.368 -0.576,-0.639 z m -0.417,-114.345004 c -1.846,-0.209 -3.996,0.279 -6.151,0.465 -2.125,0.185 -4.229,0.773 -6.296,1.347 -1.043,0.289 -2.102,0.582 -3.118,1.008 -1.051,0.442 -2.089,0.909 -3.133,1.361 -2.086,0.902 -3.927,2.165 -5.72,3.52 -0.359,0.271 -0.445,0.7 -0.286,1.108 0.496,1.272 1.062,2.518 1.534,3.799 1.083,2.942 2.544,5.714 3.989,8.476 1.588,3.039 3.441,5.943 5.262,8.854 2.074,3.316 4.208,6.593 6.372,9.851 2.398,3.611 4.79,7.227 7.282,10.774 0.491,0.698 0.576,0.679 1.016,0.007 1.12,-1.716 2.236,-3.441 3.412,-5.113 1.801,-2.56 3.495,-5.188 5.253,-7.772 1.933,-2.839 3.793,-5.73 5.581,-8.662 1.755,-2.876 3.426,-5.808 5.047,-8.763 1.095,-1.992 2.101,-4.038 3.032,-6.11 0.782,-1.74 1.314,-3.585 2.112,-5.326 0.151,-0.33 0.163,-0.724 -0.24,-1.011 -0.411,-0.292 -0.745,-0.7 -1.165,-0.978 -2.801,-1.849 -5.735,-3.389 -8.963,-4.412 -1.843,-0.584 -3.697,-1.128 -5.573,-1.502 -2.93,-0.582 -5.903,-0.946 -9.247,-0.921 z"/>
</svg>