<?xml version="1.0" encoding="utf-8"?>
<!-- Generator: Adobe Illustrator 23.1.0, SVG Export Plug-In . SVG Version: 6.00 Build 0)  -->
<svg version="1.1" id="Capa_1" xmlns="http://www.w3.org/2000/svg" xmlns:xlink="http://www.w3.org/1999/xlink" x="0px" y="0px"
	 viewBox="0 0 19.5 23" style="enable-background:new 0 0 19.5 23;" xml:space="preserve">
<style type="text/css">
	.st0{fill:#032E59;}
</style>
<path class="st0" d="M16.5,15.3c-0.9,0-1.8,0.5-2.3,1.1l-8.4-4.2c0.1-0.2,0.1-0.5,0.1-0.7c0-0.3,0-0.6-0.1-0.8l8.4-4.2
	c0.5,0.7,1.4,1.2,2.3,1.2c1.6,0,2.9-1.3,2.9-2.9s-1.3-2.9-2.9-2.9c-1.6,0-2.8,1.2-2.9,2.8l-9,4.5C4.1,8.8,3.6,8.7,3,8.7
	c-1.6,0-2.9,1.3-2.9,2.9s1.3,2.9,2.9,2.9c0.6,0,1.2-0.2,1.7-0.6l8.9,4.5c0.1,1.5,1.3,2.8,2.9,2.8c1.6,0,2.9-1.3,2.9-2.9
	S18.1,15.3,16.5,15.3z"/>
</svg>
