<?xml version="1.0" encoding="utf-8"?>
<!-- Generator: Adobe Illustrator 23.1.0, SVG Export Plug-In . SVG Version: 6.00 Build 0)  -->
<svg version="1.1" id="Capa_1" xmlns="http://www.w3.org/2000/svg" xmlns:xlink="http://www.w3.org/1999/xlink" x="0px" y="0px"
	 viewBox="0 0 46 46" style="enable-background:new 0 0 46 46;" xml:space="preserve">
<style type="text/css">
	.st0{clip-path:url(#SVGID_2_);}
	.st1{fill-rule:evenodd;clip-rule:evenodd;fill:#032E59;}
</style>
<g>
	<defs>
		<rect id="SVGID_1_" x="10" y="9.5" width="27.4" height="27.4"/>
	</defs>
	<clipPath id="SVGID_2_">
		<use xlink:href="#SVGID_1_"  style="overflow:visible;"/>
	</clipPath>
	<g class="st0">
		<path class="st1" d="M18.6,34.6c10.4,0,16-8.6,16-16c0-0.3,0-0.5,0-0.7c1.1-0.8,2.1-1.8,2.8-2.9c-1,0.5-2.1,0.8-3.2,0.9
			c1.2-0.7,2.1-1.8,2.5-3.1c-1.1,0.6-2.3,1.1-3.6,1.4c-1.1-1.2-2.7-1.9-4.5-1.8c-1.5,0.1-2.9,0.9-3.9,2.1c-1.5,1.8-1.6,3.4-1.3,4.8
			c-4.7-0.2-8.8-2.5-11.6-5.9c-0.5,0.8-0.8,1.8-0.8,2.8c0,2,1,3.7,2.5,4.7c-0.9,0-1.8-0.3-2.6-0.7c0,0,0,0,0,0.1
			c0,2.7,1.9,5,4.5,5.5c-0.5,0.1-1,0.2-1.5,0.2c-0.4,0-0.7,0-1-0.1c0.7,2.2,2.8,3.9,5.3,3.9c-1.9,1.5-4.4,2.4-7,2.4
			c-0.5,0-0.9,0-1.3-0.1C12.5,33.6,15.5,34.6,18.6,34.6z"/>
	</g>
</g>
</svg>
