<?xml version="1.0" encoding="utf-8"?>
<!-- Generator: Adobe Illustrator 23.1.0, SVG Export Plug-In . SVG Version: 6.00 Build 0)  -->
<svg version="1.1" id="Capa_1" xmlns="http://www.w3.org/2000/svg" xmlns:xlink="http://www.w3.org/1999/xlink" x="0px" y="0px"
	 viewBox="0 0 120.3 120.3" style="enable-background:new 0 0 120.3 120.3;" xml:space="preserve">
<style type="text/css">
	.st0{fill-rule:evenodd;clip-rule:evenodd;fill:#FFFFFF;}
</style>
<g>
	<path class="st0" d="M37.8,110.1c45.4,0,70.3-37.7,70.3-70.3c0-1.1,0-2.1,0-3.2c4.8-3.5,9-7.8,12.3-12.8c-4.4,2-9.2,3.3-14.2,3.9
		c5.1-3,9-7.9,10.9-13.7c-4.8,2.8-10.1,4.9-15.7,6c-4.9-5.2-11.9-8.2-19.6-7.7c-6.6,0.4-12.6,4.1-16.9,9.1
		c-6.5,7.7-6.9,14.7-5.6,21.2c-20.5-1-38.7-10.9-50.9-25.8C6.2,20.5,5,24.7,5,29.2c0,8.6,4.4,16.1,11,20.6c-4-0.1-7.8-1.3-11.2-3.1
		c0,0.1,0,0.2,0,0.3c0,11.9,8.5,22,19.8,24.2c-2.1,0.6-4.2,0.9-6.5,0.9c-1.6,0-3.1-0.1-4.6-0.4c3.1,9.8,12.3,16.9,23.1,17.1
		c-8.5,6.6-19.1,10.6-30.7,10.6c-2,0-3.9-0.1-5.9-0.3C10.9,106,23.9,110.1,37.8,110.1z"/>
</g>
</svg>
