<?xml version="1.0" encoding="utf-8"?>
<!-- Generator: Adobe Illustrator 23.1.0, SVG Export Plug-In . SVG Version: 6.00 Build 0)  -->
<svg version="1.1" id="Capa_1" xmlns="http://www.w3.org/2000/svg" xmlns:xlink="http://www.w3.org/1999/xlink" x="0px" y="0px"
	 viewBox="0 0 111 111" style="enable-background:new 0 0 111 111;" xml:space="preserve">
<style type="text/css">
	.st0{fill:#052F55;}
</style>
<g>
	<g>
		<path class="st0" d="M28.9,81.7c1-3.6,2-7.2,2.9-10.7c0.3-1,0.6-1.9,0.8-2.9c0.1-0.2,0-0.6-0.1-0.8c-2.6-4.7-3.7-9.6-3.3-14.9
			c0.7-8.9,4.8-15.9,12.1-20.9c4.9-3.3,10.4-4.9,16.4-4.4c10.7,0.8,18.7,6,23.2,15.8c4.4,9.5,3.3,18.8-2.8,27.3
			c-4.4,6.1-10.5,9.7-18,10.8c-5.8,0.9-11.3-0.1-16.5-2.8c-0.2-0.1-0.6-0.1-0.9-0.1c-4.4,1.1-8.9,2.3-13.3,3.5
			C29.4,81.6,29.2,81.6,28.9,81.7z M35.4,75.2c0.2,0,0.2,0,0.3-0.1c2.5-0.7,5-1.3,7.5-2c0.5-0.1,0.9-0.1,1.4,0.2
			c5,3,10.4,4,16.1,2.8c12.1-2.5,19.8-13.9,17.8-26C76.7,39.9,67.8,32,57.4,31.5C51.7,31.3,46.5,33,42,36.6
			c-5.1,4.2-7.9,9.6-8.3,16.2c-0.3,4.8,0.9,9.3,3.5,13.4c0.3,0.5,0.4,0.9,0.2,1.4C36.8,70.2,36.1,72.7,35.4,75.2z"/>
		<path class="st0" d="M47.5,41.6c1.2-0.3,1.8,0.4,2.2,1.5c0.6,1.6,1.3,3.1,1.9,4.7c0.2,0.5,0.2,1-0.1,1.4c-0.5,0.7-1.1,1.5-1.6,2.2
			c-0.4,0.4-0.4,0.8-0.1,1.3c2.2,3.7,5.3,6.4,9.4,8.1c0.5,0.2,1,0.1,1.3-0.3c0.7-0.9,1.4-1.7,2.1-2.6c0.4-0.5,0.8-0.7,1.4-0.4
			c1.9,0.9,3.8,1.8,5.7,2.8c0.2,0.1,0.4,0.5,0.4,0.8c0,2.9-0.9,4.3-4,5.6c-1.8,0.7-3.6,0.6-5.4,0.1c-6.5-1.8-11.3-5.9-15.2-11.3
			c-1.2-1.7-2.3-3.4-2.8-5.5c-0.7-2.9,0.1-5.5,2.2-7.6C45.6,41.6,46.5,41.5,47.5,41.6z"/>
	</g>
</g>
</svg>
