<?xml version="1.0" encoding="utf-8"?>
<!-- Generator: Adobe Illustrator 23.1.0, SVG Export Plug-In . SVG Version: 6.00 Build 0)  -->
<svg version="1.1" id="Capa_1" xmlns="http://www.w3.org/2000/svg" xmlns:xlink="http://www.w3.org/1999/xlink" x="0px" y="0px"
	 viewBox="0 0 46 46" style="enable-background:new 0 0 46 46;" xml:space="preserve">
<style type="text/css">
	.st0{fill:#032E59;}
</style>
<path class="st0" d="M36.4,16.5c-0.3-1.4-1.4-2.5-2.9-2.7c-2.3-0.3-6-0.8-10.3-0.8c-4.3,0-8,0.4-10.3,0.8c-1.4,0.2-2.6,1.3-2.9,2.7
	c-0.3,1.6-0.5,3.9-0.5,6.8S9.7,28.5,10,30c0.3,1.4,1.4,2.5,2.9,2.7c2.3,0.3,6.1,0.8,10.3,0.8c4.3,0,8-0.4,10.3-0.8
	c1.4-0.2,2.6-1.3,2.9-2.7c0.3-1.6,0.5-3.9,0.6-6.8C37,20.4,36.6,18.1,36.4,16.5z M20.4,28.1v-9.6l8.2,4.8L20.4,28.1z"/>
</svg>
