<?xml version="1.0" encoding="utf-8"?>
<!-- Generator: Adobe Illustrator 23.1.0, SVG Export Plug-In . SVG Version: 6.00 Build 0)  -->
<svg version="1.1" id="Capa_1" xmlns="http://www.w3.org/2000/svg" xmlns:xlink="http://www.w3.org/1999/xlink" x="0px" y="0px"
	 viewBox="0 0 120.3 120.3" style="enable-background:new 0 0 120.3 120.3;" xml:space="preserve">
<style type="text/css">
	.st0{fill:#FFFFFF;}
</style>
<g>
	<g>
		<path class="st0" d="M117.6,31.2c-1.2-6.3-6.3-11.1-12.6-12c-10.2-1.5-26.4-3.3-45-3.3c-18.6,0-35.1,1.8-45,3.3
			c-6.3,0.9-11.4,5.7-12.6,12C1.2,38.1,0,48.3,0,60.9c0,12.6,1.2,22.8,2.4,29.7c1.2,6.3,6.3,11.1,12.6,12c10.2,1.5,26.7,3.3,45,3.3
			c18.6,0,35.1-1.8,45-3.3c6.3-0.9,11.4-5.7,12.6-12c1.2-6.9,2.4-17.1,2.7-29.7C120.3,48.3,118.8,38.1,117.6,31.2z M48,81.9v-42
			l36,21L48,81.9z"/>
	</g>
</g>
</svg>
