<?xml version="1.0" encoding="utf-8"?>
<!-- Generator: Adobe Illustrator 23.1.0, SVG Export Plug-In . SVG Version: 6.00 Build 0)  -->
<svg version="1.1" id="Capa_1" xmlns="http://www.w3.org/2000/svg" xmlns:xlink="http://www.w3.org/1999/xlink" x="0px" y="0px"
	 viewBox="0 0 154.4 113.2" style="enable-background:new 0 0 154.4 113.2;" xml:space="preserve">
<style type="text/css">
	.st0{fill:#1B3155;}
</style>
<g>
	<path class="st0" d="M49.5,36l16,48.4l10.1-10.1L88.5,87l11.3-11.5L87.1,62.7l10.5-10.5L49.5,36z M97,75.5l-8.5,8.7L75.6,71.4
		l-9.2,9.2L52.7,39.2l41.3,13.9l-9.6,9.7L97,75.5z"/>
	<polygon class="st0" points="154.5,17.7 154.5,17.7 152.5,17.7 10.8,17.7 10.8,19.7 152.5,19.7 152.5,103 2.3,103 2.3,10.2 
		154.5,10.2 154.5,8.2 0.3,8.2 0.3,105 154.5,105 154.5,19.7 154.5,19.7 	"/>
</g>
</svg>
