<?xml version="1.0" encoding="utf-8"?>
<!-- Generator: Adobe Illustrator 23.1.0, SVG Export Plug-In . SVG Version: 6.00 Build 0)  -->
<svg version="1.1" id="Capa_1" xmlns="http://www.w3.org/2000/svg" xmlns:xlink="http://www.w3.org/1999/xlink" x="0px" y="0px"
	 viewBox="0 0 128.1 113.2" style="enable-background:new 0 0 128.1 113.2;" xml:space="preserve">
<style type="text/css">
	.st0{fill:#1B3155;}
</style>
<g>
	<path class="st0" d="M99.4,77.1l-1-0.3l-0.6,1.9l1,0.3c11.8,3.5,18.8,8.6,18.8,13.8c0,9.7-23.6,17.9-52,18.2
		c6-6.3,38.3-41.8,38.4-69.4h0v-1.1v-1l0,0C103.4,17.9,85.8,0.4,64,0.4c-21.7,0-39.4,17.4-40,39.1h0v1c0,0,0,0.1,0,0.1c0,0,0,0,0,0
		v1h0c0,0.3,0,0.6,0,0.9l0,0l0.1,1c0.1,1.9,0.4,3.9,0.8,5.7l0.2,1l0,0c4.6,20.6,22.2,43.5,32.4,55.4l6.2,7.5l0.2-0.1l0.1,0.1
		c31.2,0,55.6-8.9,55.6-20.3C119.6,86.6,112.3,80.9,99.4,77.1z M26.9,48.8l-0.2-1l0,0c-0.2-1.2-0.4-2.4-0.5-3.6l0,0l-0.1-1
		C26,42.3,26,41.4,26,40.6C26,19.5,43,2.5,64,2.5c21,0,38,17.1,38,38.1v1h0c0,27-33.5,63.5-38.2,68.4l-4.7-5.7
		C48.8,92.4,31,69.3,26.9,48.8z"/>
	<path class="st0" d="M10.5,93c0-5.2,7.1-10.3,19-13.8l1-0.3L29.9,77l-1,0.3C15.9,81,8.5,86.8,8.5,93c0,9.8,18.4,17.9,44.7,19.8
		l1,0.1l0.2-2l-1-0.1C28.9,109,10.5,101.4,10.5,93z"/>
	<path class="st0" d="M85.5,41.6C85.5,29.7,75.9,20,64,20s-21.5,9.7-21.5,21.6c0,11.9,9.6,21.6,21.5,21.6S85.5,53.5,85.5,41.6z
		 M44.5,41.6C44.5,30.8,53.2,22,64,22s19.5,8.8,19.5,19.6c0,10.8-8.7,19.6-19.5,19.6S44.5,52.4,44.5,41.6z"/>
</g>
</svg>
