<?xml version="1.0" encoding="utf-8"?>
<!-- Generator: Adobe Illustrator 23.1.0, SVG Export Plug-In . SVG Version: 6.00 Build 0)  -->
<svg version="1.1" id="Capa_1" xmlns="http://www.w3.org/2000/svg" xmlns:xlink="http://www.w3.org/1999/xlink" x="0px" y="0px"
	 viewBox="0 0 128.1 113.2" style="enable-background:new 0 0 128.1 113.2;" xml:space="preserve">
<style type="text/css">
	.st0{fill:#1B3155;}
</style>
<path class="st0" d="M127.8,34.7c0-9.1-3.6-17.7-10-24.1c-13.3-13.3-35-13.3-48.3,0L64.1,16l-5.4-5.4c-13.3-13.3-35-13.3-48.3,0
	c-6.5,6.5-10,15-10,24.1s3.6,17.7,10,24.1l2.4,2.4l-3.2,3.2c-2,2-3.1,4.7-3.1,7.5s1.1,5.5,3.1,7.5c2.1,2.1,4.8,3.2,7.5,3.2
	c1.2,0,2.4-0.2,3.6-0.7c-0.4,1.1-0.6,2.3-0.6,3.6c0,2.8,1.1,5.5,3.1,7.5c2.1,2.1,4.8,3.2,7.5,3.2c1.2,0,2.4-0.2,3.6-0.7
	c-0.4,1.1-0.6,2.4-0.6,3.6c0,2.8,1.1,5.5,3.1,7.5c2.1,2.1,4.8,3.2,7.5,3.2s5.4-1.1,7.5-3.2l3.2-3.2l6.3,6.2c2.1,2.2,5,3.3,7.8,3.3
	c2.3,0,4.6-0.7,6.5-2.2c2.5-2,3.9-4.7,4.1-7.8c0.1-1.4-0.1-2.8-0.6-4.1c1.2,0.4,2.4,0.6,3.6,0.6c2.7,0,5.4-1.1,7.5-3.2
	c2-2,3.1-4.7,3.1-7.5c0-1.2-0.2-2.5-0.6-3.6c1.2,0.4,2.4,0.7,3.6,0.7c2.7,0,5.4-1.1,7.5-3.2c2-2,3.1-4.7,3.1-7.5
	c0-1.6-0.4-3.1-1-4.4l11.9-11.9C124.3,52.4,127.8,43.8,127.8,34.7z M11.2,78c-1.6-1.6-2.6-3.8-2.6-6.1s0.9-4.4,2.6-6.1l7.1-7.3
	c1.6-1.6,3.7-2.5,6-2.5h0.1c2.3,0,4.5,0.9,6.2,2.6c1.6,1.6,2.6,3.8,2.6,6.1s-0.9,4.4-2.6,6.1L23.4,78C20,81.4,14.6,81.4,11.2,78z
	 M24.7,91.5c-1.6-1.6-2.6-3.8-2.6-6.1c0-2.3,0.9-4.4,2.6-6.1l13.2-13.2c1.7-1.6,3.8-2.5,6.1-2.5c2.2,0,4.4,0.8,6.2,2.5
	c1.6,1.6,2.5,3.8,2.5,6.1s-0.9,4.4-2.6,6.1l-6,6l-7.2,7.2C33.5,94.9,28.1,94.9,24.7,91.5z M50.5,105.2c-3.4,3.4-8.8,3.4-12.2,0
	c-1.6-1.6-2.6-3.8-2.6-6.1c0-2.3,0.9-4.4,2.6-6.1l7.2-7.2c1.6-1.7,3.7-2.6,6-2.6c2.4,0,4.6,0.9,6.2,2.6c1.6,1.6,2.6,3.8,2.6,6.1
	s-0.9,4.4-2.6,6.1L50.5,105.2z M102.4,81.2c-3.4,3.4-8.8,3.4-12.2,0l-7.9-8l-1.4,1.4l7.2,7.3l0.7,0.7c1.6,1.6,2.6,3.8,2.6,6.1
	s-0.9,4.4-2.6,6.1c-3.4,3.4-8.7,3.4-12.1,0.1c0,0,0-0.1-0.1-0.1l-0.7-0.7l0,0l-7.3-7.3l-1.4,1.4l7.3,7.3l0,0l0.7,0.7
	c1.8,1.8,2.7,4.2,2.6,6.6c-0.1,2.5-1.3,4.7-3.4,6.3c-3.5,2.7-8.6,2.3-11.7-0.9l-6.3-6.2l2.6-2.6c2-2,3.1-4.7,3.1-7.5
	S61,86.4,59,84.4c-2.1-2-4.8-3.1-7.7-3.1c-0.5,0-1,0.1-1.5,0.1l1.6-1.6c2-2,3.1-4.7,3.1-7.5c0-2.8-1.1-5.5-3.1-7.5
	c-4.2-4.1-11-4.1-15,0l-1.6,1.6c0.1-0.6,0.1-1.1,0.1-1.7c0-2.8-1.1-5.5-3.1-7.5c-2.1-2-4.8-3.1-7.7-3.1c-2.8,0-5.4,1.1-7.4,3.1
	l-2.6,2.6l-2.4-2.4c-6.1-6.1-9.4-14.1-9.4-22.7S5.7,18,11.8,12c12.6-12.5,33-12.5,45.5,0l5.4,5.4L56,24.1l0.1,0.1l-4.7,4.7
	c-4,4-4.4,10.1-1.1,14.3c1.9,2.4,4.8,3.9,7.8,4.1c0.2,0,0.4,0,0.6,0c2.8,0,5.5-1.1,7.5-3.1l6.1-5.9L102.4,69
	c1.6,1.6,2.6,3.8,2.6,6.1C105,77.4,104.1,79.5,102.4,81.2z M104.9,68.9c-0.3-0.4-0.7-0.9-1.1-1.3L72.9,36.2l-0.7-0.7l-0.7,0.7
	l-6.8,6.6c-1.7,1.7-4.1,2.6-6.5,2.5c-2.5-0.1-4.8-1.4-6.4-3.3c-2.6-3.3-2.2-8.4,1-11.6l11.5-11.5l0.5-0.5l2-2l-0.1-0.1l4.2-4.2
	c12.5-12.5,32.9-12.5,45.5,0c6.1,6.1,9.4,14.1,9.4,22.7c0,8.6-3.3,16.6-9.4,22.7L104.9,68.9z"/>
</svg>
