<?xml version="1.0" encoding="utf-8"?>
<!-- Generator: Adobe Illustrator 23.1.0, SVG Export Plug-In . SVG Version: 6.00 Build 0)  -->
<svg version="1.1" id="Capa_1" xmlns="http://www.w3.org/2000/svg" xmlns:xlink="http://www.w3.org/1999/xlink" x="0px" y="0px"
	 viewBox="0 0 154.4 113.2" style="enable-background:new 0 0 154.4 113.2;" xml:space="preserve">
<style type="text/css">
	.st0{fill:#1B3155;}
</style>
<g>
	<g>
		<g>
			<path class="st0" d="M108.8,55.1l2.2-12l-8.8-8.6l12.1-1.8l5.5-11l5.3,11l12.1,1.8l-8.6,8.6l2,12l-10.8-5.7L108.8,55.1z
				 M119.8,47.1l8.2,4.3l-1.5-9.1l6.6-6.6l-9.2-1.4l-4-8.3l-4.1,8.3l-9.2,1.4l6.7,6.6l-1.6,9.1L119.8,47.1z"/>
		</g>
		<g>
			<path class="st0" d="M154.4,105H0.3V8.2h154.1V105z M2.3,103h150.1V10.2H2.3V103z"/>
		</g>
		<g>
			<rect x="18.5" y="30.6" class="st0" width="67.1" height="2"/>
		</g>
		<g>
			<rect x="18.5" y="82.8" class="st0" width="117.8" height="2"/>
		</g>
		<g>
			<rect x="18.5" y="65.4" class="st0" width="117.8" height="2"/>
		</g>
		<g>
			<rect x="18.5" y="48" class="st0" width="67.1" height="2"/>
		</g>
	</g>
</g>
</svg>
